<?xml version="1.0" encoding="utf-8"?>
<!-- Generator: Adobe Illustrator 16.0.0, SVG Export Plug-In . SVG Version: 6.00 Build 0)  -->
<!DOCTYPE svg PUBLIC "-//W3C//DTD SVG 1.1//EN" "http://www.w3.org/Graphics/SVG/1.1/DTD/svg11.dtd">
<svg version="1.1" id="Layer_1" xmlns="http://www.w3.org/2000/svg" xmlns:xlink="http://www.w3.org/1999/xlink" x="0px" y="0px"
	 width="792px" height="612px" viewBox="0 0 792 612" enable-background="new 0 0 792 612" xml:space="preserve">
<g>
	<path fill="#FFFFFF" stroke="#000000" stroke-miterlimit="10" d="M395.7,111.225c107.363,0,194.399,87.035,194.399,194.399
		s-87.036,194.4-194.399,194.4c-107.364,0-194.4-87.036-194.4-194.4S288.336,111.225,395.7,111.225z"/>
</g>
<g>
	<path fill="#7F3F98" stroke="#000000" stroke-miterlimit="10" d="M617.401,284.023c11.929,0,21.599,9.672,21.599,21.601
		c0,11.93-9.67,21.6-21.599,21.6c-11.93,0-21.601-9.67-21.601-21.6C595.8,293.695,605.471,284.023,617.401,284.023z"/>
</g>
<g>
</g>
<g>
	<path fill="#F26522" stroke="#000000" stroke-miterlimit="10" d="M395.7,166.124c11.929,0,21.6,9.671,21.6,21.601
		c0,11.929-9.671,21.6-21.6,21.6c-11.93,0-21.601-9.671-21.601-21.6C374.1,175.795,383.771,166.124,395.7,166.124z"/>
</g>
<g>
</g>
<g>
	<path fill="#00A14B" stroke="#000000" stroke-miterlimit="10" d="M395.7,474.824c11.929,0,21.6,9.671,21.6,21.6
		c0,11.93-9.671,21.601-21.6,21.601c-11.93,0-21.601-9.671-21.601-21.601C374.1,484.495,383.771,474.824,395.7,474.824z"/>
</g>
<g>
	<path fill="#FFDE17" stroke="#000000" stroke-miterlimit="10" d="M174.6,284.023c11.93,0,21.6,9.672,21.6,21.601
		c0,11.93-9.67,21.6-21.6,21.6c-11.929,0-21.6-9.67-21.6-21.6C153.001,293.695,162.671,284.023,174.6,284.023z"/>
</g>
</svg>
