<?xml version="1.0" encoding="utf-8"?>
<!-- Generator: Adobe Illustrator 16.0.0, SVG Export Plug-In . SVG Version: 6.00 Build 0)  -->
<!DOCTYPE svg PUBLIC "-//W3C//DTD SVG 1.1//EN" "http://www.w3.org/Graphics/SVG/1.1/DTD/svg11.dtd">
<svg version="1.1" id="Layer_1" xmlns="http://www.w3.org/2000/svg" xmlns:xlink="http://www.w3.org/1999/xlink" x="0px" y="0px"
	 width="792px" height="612px" viewBox="0 0 792 612" enable-background="new 0 0 792 612" xml:space="preserve">
<g>
	<path fill="#FFFFFF" stroke="#000000" stroke-miterlimit="10" d="M393.166,112.572c107.363,0,194.399,87.035,194.399,194.399
		s-87.036,194.4-194.399,194.4c-107.364,0-194.4-87.036-194.4-194.4S285.802,112.572,393.166,112.572z"/>
</g>
<g>
</g>
<g>
</g>
<g>
	<path fill="#F26522" stroke="#000000" stroke-miterlimit="10" d="M430.665,94.572c11.93,0,21.601,9.67,21.601,21.6
		s-9.671,21.6-21.601,21.6c-11.929,0-21.6-9.67-21.6-21.6S418.736,94.572,430.665,94.572z"/>
</g>
<g>
</g>
<g>
	<path fill="#00A14B" stroke="#000000" stroke-miterlimit="10" d="M466.366,402.672c11.929,0,21.6,9.671,21.6,21.6
		c0,11.93-9.671,21.601-21.6,21.601c-11.93,0-21.601-9.671-21.601-21.601C444.766,412.343,454.437,402.672,466.366,402.672z"/>
</g>
<g>
	<path fill="#FFDE17" stroke="#000000" stroke-miterlimit="10" d="M203.566,285.371c11.93,0,21.6,9.672,21.6,21.601
		c0,11.93-9.67,21.6-21.6,21.6c-11.929,0-21.6-9.67-21.6-21.6C181.966,295.043,191.637,285.371,203.566,285.371z"/>
</g>
</svg>
