<?xml version="1.0" encoding="utf-8"?>
<!-- Generator: Adobe Illustrator 16.0.0, SVG Export Plug-In . SVG Version: 6.00 Build 0)  -->
<!DOCTYPE svg PUBLIC "-//W3C//DTD SVG 1.1//EN" "http://www.w3.org/Graphics/SVG/1.1/DTD/svg11.dtd">
<svg version="1.1" id="Layer_1" xmlns="http://www.w3.org/2000/svg" xmlns:xlink="http://www.w3.org/1999/xlink" x="0px" y="0px"
	 width="792px" height="612px" viewBox="0 0 792 612" enable-background="new 0 0 792 612" xml:space="preserve">
<g>
	<path fill="#FFFFFF" stroke="#000000" stroke-miterlimit="10" d="M394.306,110.398c107.363,0,194.4,87.036,194.4,194.4
		s-87.037,194.4-194.4,194.4c-107.364,0-194.4-87.036-194.4-194.4S286.941,110.398,394.306,110.398z"/>
</g>
<g>
</g>
<g>
	<path fill="#21409A" stroke="#000000" stroke-miterlimit="10" d="M583.606,283.198c11.927,0,21.599,9.671,21.599,21.6
		c0,11.93-9.672,21.6-21.599,21.6c-11.93,0-21.6-9.67-21.6-21.6C562.006,292.869,571.676,283.198,583.606,283.198z"/>
</g>
<g>
	<path fill="#F26522" stroke="#000000" stroke-miterlimit="10" d="M394.905,503.698c11.93,0,21.602,9.67,21.602,21.6
		s-9.672,21.6-21.602,21.6c-11.929,0-21.6-9.67-21.6-21.6S382.976,503.698,394.905,503.698z"/>
</g>
<g>
	<path fill="#ED1C24" stroke="#000000" stroke-miterlimit="10" d="M394.905,61.798c11.93,0,21.602,9.67,21.602,21.6
		c0,11.929-9.672,21.6-21.602,21.6c-11.929,0-21.6-9.671-21.6-21.6C373.305,71.468,382.976,61.798,394.905,61.798z"/>
</g>
<g>
</g>
<g>
	<path fill="#FFDE17" stroke="#000000" stroke-miterlimit="10" d="M277.605,283.198c11.93,0,21.6,9.671,21.6,21.6
		c0,11.93-9.67,21.6-21.6,21.6c-11.929,0-21.6-9.67-21.6-21.6C256.006,292.869,265.676,283.198,277.605,283.198z"/>
</g>
</svg>
