<?xml version="1.0" encoding="utf-8"?>
<!-- Generator: Adobe Illustrator 16.0.0, SVG Export Plug-In . SVG Version: 6.00 Build 0)  -->
<!DOCTYPE svg PUBLIC "-//W3C//DTD SVG 1.1//EN" "http://www.w3.org/Graphics/SVG/1.1/DTD/svg11.dtd">
<svg version="1.1" id="Layer_1" xmlns="http://www.w3.org/2000/svg" xmlns:xlink="http://www.w3.org/1999/xlink" x="0px" y="0px"
	 width="792px" height="612px" viewBox="0 0 792 612" enable-background="new 0 0 792 612" xml:space="preserve">
<g>
	<path fill="#FFFFFF" stroke="#000000" stroke-miterlimit="10" d="M394.005,110.703c107.363,0,194.399,87.036,194.399,194.4
		s-87.036,194.4-194.399,194.4c-107.364,0-194.4-87.036-194.4-194.4S286.641,110.703,394.005,110.703z"/>
</g>
<g>
</g>
<g>
	<path fill="#21409A" stroke="#000000" stroke-miterlimit="10" d="M549.105,165.603c11.93,0,21.601,9.67,21.601,21.6
		c0,11.929-9.671,21.6-21.601,21.6s-21.6-9.671-21.6-21.6C527.505,175.273,537.175,165.603,549.105,165.603z"/>
</g>
<g>
	<path fill="#F26522" stroke="#000000" stroke-miterlimit="10" d="M466.605,474.303c11.93,0,21.601,9.671,21.601,21.6
		c0,11.93-9.671,21.601-21.601,21.601s-21.601-9.671-21.601-21.601C445.004,483.974,454.675,474.303,466.605,474.303z"/>
</g>
<g>
</g>
<g>
</g>
<g>
	<path fill="#FFDE17" stroke="#000000" stroke-miterlimit="10" d="M277.305,283.502c11.93,0,21.6,9.671,21.6,21.6
		c0,11.93-9.67,21.6-21.6,21.6c-11.929,0-21.6-9.67-21.6-21.6C255.706,293.173,265.376,283.502,277.305,283.502z"/>
</g>
</svg>
