<?xml version="1.0" encoding="utf-8"?>
<!-- Generator: Adobe Illustrator 16.0.0, SVG Export Plug-In . SVG Version: 6.00 Build 0)  -->
<!DOCTYPE svg PUBLIC "-//W3C//DTD SVG 1.1//EN" "http://www.w3.org/Graphics/SVG/1.1/DTD/svg11.dtd">
<svg version="1.1" id="Layer_1" xmlns="http://www.w3.org/2000/svg" xmlns:xlink="http://www.w3.org/1999/xlink" x="0px" y="0px"
	 width="792px" height="612px" viewBox="0 0 792 612" enable-background="new 0 0 792 612" xml:space="preserve">
<g>
	<path fill="#FFFFFF" stroke="#000000" stroke-miterlimit="10" d="M394.096,112.877c107.363,0,194.398,87.035,194.398,194.399
		s-87.035,194.4-194.398,194.4c-107.365,0-194.4-87.036-194.4-194.4S286.731,112.877,394.096,112.877z"/>
</g>
<g>
</g>
<g>
	<path fill="#21409A" stroke="#000000" stroke-miterlimit="10" d="M172.996,285.676c11.93,0,21.601,9.672,21.601,21.601
		c0,11.93-9.671,21.6-21.601,21.6c-11.929,0-21.599-9.67-21.599-21.6C151.396,295.348,161.067,285.676,172.996,285.676z"/>
</g>
<g>
	<path fill="#F26522" stroke="#000000" stroke-miterlimit="10" d="M394.696,64.276c11.93,0,21.6,9.671,21.6,21.601
		c0,11.929-9.67,21.6-21.6,21.6s-21.601-9.671-21.601-21.6C373.095,73.947,382.766,64.276,394.696,64.276z"/>
</g>
<g>
	<path fill="#ED1C24" stroke="#000000" stroke-miterlimit="10" d="M394.696,506.177c11.93,0,21.6,9.67,21.6,21.6
		s-9.67,21.6-21.6,21.6s-21.601-9.67-21.601-21.6S382.766,506.177,394.696,506.177z"/>
</g>
<g>
	<path fill="#00A14B" stroke="#000000" stroke-miterlimit="10" d="M615.795,285.676c11.93,0,21.6,9.672,21.6,21.601
		c0,11.93-9.67,21.6-21.6,21.6s-21.6-9.67-21.6-21.6C594.196,295.348,603.866,285.676,615.795,285.676z"/>
</g>
<g>
	<path fill="#FFDE17" stroke="#000000" stroke-miterlimit="10" d="M394.096,285.676c11.928,0,21.6,9.672,21.6,21.601
		c0,11.93-9.672,21.6-21.6,21.6c-11.93,0-21.602-9.67-21.602-21.6C372.495,295.348,382.167,285.676,394.096,285.676z"/>
</g>
</svg>
