<?xml version="1.0" encoding="utf-8"?>
<!-- Generator: Adobe Illustrator 16.0.0, SVG Export Plug-In . SVG Version: 6.00 Build 0)  -->
<!DOCTYPE svg PUBLIC "-//W3C//DTD SVG 1.1//EN" "http://www.w3.org/Graphics/SVG/1.1/DTD/svg11.dtd">
<svg version="1.1" id="Layer_1" xmlns="http://www.w3.org/2000/svg" xmlns:xlink="http://www.w3.org/1999/xlink" x="0px" y="0px"
	 width="792px" height="612px" viewBox="0 0 792 612" enable-background="new 0 0 792 612" xml:space="preserve">
<g>
	<path fill="#FFFFFF" stroke="#000000" stroke-miterlimit="10" d="M394.935,112.355c107.363,0,194.399,87.036,194.399,194.4
		s-87.037,194.4-194.399,194.4c-107.364,0-194.4-87.036-194.4-194.4S287.571,112.355,394.935,112.355z"/>
</g>
<g>
</g>
<g>
	<path fill="#21409A" stroke="#000000" stroke-miterlimit="10" d="M395.535,63.755c11.93,0,21.601,9.67,21.601,21.6
		c0,11.929-9.671,21.6-21.601,21.6c-11.929,0-21.601-9.671-21.601-21.6C373.934,73.425,383.605,63.755,395.535,63.755z"/>
</g>
<g>
</g>
<g>
	<path fill="#ED1C24" stroke="#000000" stroke-miterlimit="10" d="M205.334,285.155c11.93,0,21.601,9.671,21.601,21.6
		c0,11.93-9.671,21.6-21.601,21.6c-11.929,0-21.6-9.67-21.6-21.6C183.735,294.826,193.406,285.155,205.334,285.155z"/>
</g>
<g>
	<path fill="#00A14B" stroke="#000000" stroke-miterlimit="10" d="M395.535,505.655c11.93,0,21.601,9.67,21.601,21.6
		s-9.671,21.6-21.601,21.6c-11.929,0-21.601-9.67-21.601-21.6S383.605,505.655,395.535,505.655z"/>
</g>
<g>
	<path fill="#FFDE17" stroke="#000000" stroke-miterlimit="10" d="M512.535,285.155c11.93,0,21.601,9.671,21.601,21.6
		c0,11.93-9.671,21.6-21.601,21.6c-11.929,0-21.6-9.67-21.6-21.6C490.935,294.826,500.605,285.155,512.535,285.155z"/>
</g>
</svg>
