<?xml version="1.0" encoding="utf-8"?>
<!-- Generator: Adobe Illustrator 16.0.0, SVG Export Plug-In . SVG Version: 6.00 Build 0)  -->
<!DOCTYPE svg PUBLIC "-//W3C//DTD SVG 1.1//EN" "http://www.w3.org/Graphics/SVG/1.1/DTD/svg11.dtd">
<svg version="1.1" id="Layer_1" xmlns="http://www.w3.org/2000/svg" xmlns:xlink="http://www.w3.org/1999/xlink" x="0px" y="0px"
	 width="792px" height="612px" viewBox="0 0 792 612" enable-background="new 0 0 792 612" xml:space="preserve">
<g>
	<path fill="#FFFFFF" stroke="#000000" stroke-miterlimit="10" d="M395.701,111.225c107.364,0,194.399,87.035,194.399,194.399
		s-87.036,194.4-194.399,194.4c-107.364,0-194.4-87.036-194.4-194.4S288.336,111.225,395.701,111.225z"/>
</g>
<g>
</g>
<g>
	<path fill="#21409A" stroke="#000000" stroke-miterlimit="10" d="M357.301,93.523c11.929,0,21.6,9.672,21.6,21.601
		s-9.671,21.601-21.6,21.601c-11.93,0-21.6-9.672-21.6-21.601S345.371,93.523,357.301,93.523z"/>
</g>
<g>
</g>
<g>
	<path fill="#ED1C24" stroke="#000000" stroke-miterlimit="10" d="M323.101,401.324c11.929,0,21.6,9.671,21.6,21.6
		c0,11.93-9.671,21.601-21.6,21.601s-21.6-9.671-21.6-21.601C301.5,410.995,311.171,401.324,323.101,401.324z"/>
</g>
<g>
</g>
<g>
	<path fill="#FFDE17" stroke="#000000" stroke-miterlimit="10" d="M585,284.023c11.929,0,21.6,9.672,21.6,21.601
		c0,11.93-9.671,21.6-21.6,21.6c-11.93,0-21.6-9.67-21.6-21.6C563.401,293.695,573.071,284.023,585,284.023z"/>
</g>
</svg>
