<?xml version="1.0" encoding="utf-8"?>
<!-- Generator: Adobe Illustrator 16.0.0, SVG Export Plug-In . SVG Version: 6.00 Build 0)  -->
<!DOCTYPE svg PUBLIC "-//W3C//DTD SVG 1.1//EN" "http://www.w3.org/Graphics/SVG/1.1/DTD/svg11.dtd">
<svg version="1.1" id="Layer_1" xmlns="http://www.w3.org/2000/svg" xmlns:xlink="http://www.w3.org/1999/xlink" x="0px" y="0px"
	 width="792px" height="612px" viewBox="0 0 792 612" enable-background="new 0 0 792 612" xml:space="preserve">
<g>
	<path fill="#FFFFFF" stroke="#000000" stroke-miterlimit="10" d="M396.84,112.05c107.363,0,194.4,87.036,194.4,194.4
		s-87.037,194.4-194.4,194.4c-107.364,0-194.4-87.036-194.4-194.4S289.476,112.05,396.84,112.05z"/>
</g>
<g>
	<path fill="#7F3F98" stroke="#000000" stroke-miterlimit="10" d="M175.74,284.85c11.93,0,21.6,9.671,21.6,21.6
		c0,11.93-9.67,21.6-21.6,21.6c-11.929,0-21.6-9.67-21.6-21.6C154.141,294.521,163.811,284.85,175.74,284.85z"/>
</g>
<g>
</g>
<g>
</g>
<g>
	<path fill="#ED1C24" stroke="#000000" stroke-miterlimit="10" d="M396.84,166.95c11.929,0,21.599,9.67,21.599,21.6
		c0,11.929-9.67,21.6-21.599,21.6c-11.93,0-21.601-9.671-21.601-21.6C375.24,176.621,384.911,166.95,396.84,166.95z"/>
</g>
<g>
	<path fill="#00A14B" stroke="#000000" stroke-miterlimit="10" d="M396.84,475.65c11.929,0,21.599,9.671,21.599,21.6
		c0,11.93-9.67,21.601-21.599,21.601c-11.93,0-21.601-9.671-21.601-21.601C375.24,485.321,384.911,475.65,396.84,475.65z"/>
</g>
<g>
	<path fill="#FFDE17" stroke="#000000" stroke-miterlimit="10" d="M618.541,284.85c11.928,0,21.598,9.671,21.598,21.6
		c0,11.93-9.67,21.6-21.598,21.6c-11.93,0-21.602-9.67-21.602-21.6C596.939,294.521,606.611,284.85,618.541,284.85z"/>
</g>
</svg>
