<?xml version="1.0" encoding="utf-8"?>
<!-- Generator: Adobe Illustrator 16.0.0, SVG Export Plug-In . SVG Version: 6.00 Build 0)  -->
<!DOCTYPE svg PUBLIC "-//W3C//DTD SVG 1.1//EN" "http://www.w3.org/Graphics/SVG/1.1/DTD/svg11.dtd">
<svg version="1.1" id="Layer_1" xmlns="http://www.w3.org/2000/svg" xmlns:xlink="http://www.w3.org/1999/xlink" x="0px" y="0px"
	 width="792px" height="612px" viewBox="0 0 792 612" enable-background="new 0 0 792 612" xml:space="preserve">
<g>
	<path fill="#FFFFFF" stroke="#000000" stroke-miterlimit="10" d="M396.84,112.572c107.363,0,194.4,87.035,194.4,194.399
		s-87.037,194.4-194.4,194.4c-107.364,0-194.4-87.036-194.4-194.4S289.476,112.572,396.84,112.572z"/>
</g>
<g>
	<path fill="#7F3F98" stroke="#000000" stroke-miterlimit="10" d="M175.74,285.371c11.93,0,21.6,9.672,21.6,21.601
		c0,11.93-9.67,21.6-21.6,21.6c-11.929,0-21.6-9.67-21.6-21.6C154.141,295.043,163.811,285.371,175.74,285.371z"/>
</g>
<g>
	<path fill="#21409A" stroke="#000000" stroke-miterlimit="10" d="M396.84,167.472c11.929,0,21.599,9.671,21.599,21.601
		c0,11.929-9.67,21.6-21.599,21.6c-11.93,0-21.601-9.671-21.601-21.6C375.24,177.143,384.911,167.472,396.84,167.472z"/>
</g>
<g>
</g>
<g>
	<path fill="#ED1C24" stroke="#000000" stroke-miterlimit="10" d="M396.84,476.172c11.929,0,21.599,9.671,21.599,21.6
		c0,11.93-9.67,21.601-21.599,21.601c-11.93,0-21.601-9.671-21.601-21.601C375.24,485.843,384.911,476.172,396.84,476.172z"/>
</g>
<g>
</g>
<g>
	<path fill="#FFDE17" stroke="#000000" stroke-miterlimit="10" d="M618.541,285.371c11.928,0,21.598,9.672,21.598,21.601
		c0,11.93-9.67,21.6-21.598,21.6c-11.93,0-21.602-9.67-21.602-21.6C596.939,295.043,606.611,285.371,618.541,285.371z"/>
</g>
</svg>
