<?xml version="1.0" encoding="utf-8"?>
<!-- Generator: Adobe Illustrator 16.0.0, SVG Export Plug-In . SVG Version: 6.00 Build 0)  -->
<!DOCTYPE svg PUBLIC "-//W3C//DTD SVG 1.1//EN" "http://www.w3.org/Graphics/SVG/1.1/DTD/svg11.dtd">
<svg version="1.1" id="Layer_1" xmlns="http://www.w3.org/2000/svg" xmlns:xlink="http://www.w3.org/1999/xlink" x="0px" y="0px"
	 width="792px" height="612px" viewBox="0 0 792 612" enable-background="new 0 0 792 612" xml:space="preserve">
<g>
	<path fill="#FFFFFF" stroke="#000000" stroke-miterlimit="10" d="M396.631,110.703c107.363,0,194.398,87.036,194.398,194.4
		s-87.035,194.4-194.398,194.4c-107.365,0-194.4-87.036-194.4-194.4S289.266,110.703,396.631,110.703z"/>
</g>
<g>
	<path fill="#7F3F98" stroke="#000000" stroke-miterlimit="10" d="M207.03,283.502c11.93,0,21.601,9.671,21.601,21.6
		c0,11.93-9.671,21.6-21.601,21.6c-11.929,0-21.6-9.67-21.6-21.6C185.431,293.173,195.102,283.502,207.03,283.502z"/>
</g>
<g>
</g>
<g>
</g>
<g>
	<path fill="#ED1C24" stroke="#000000" stroke-miterlimit="10" d="M434.129,92.703c11.93,0,21.602,9.67,21.602,21.6
		c0,11.929-9.672,21.6-21.602,21.6c-11.928,0-21.6-9.67-21.6-21.6C412.529,102.373,422.201,92.703,434.129,92.703z"/>
</g>
<g>
	<path fill="#00A14B" stroke="#000000" stroke-miterlimit="10" d="M469.83,400.803c11.93,0,21.6,9.671,21.6,21.6
		c0,11.93-9.67,21.601-21.6,21.601s-21.6-9.671-21.6-21.601C448.23,410.474,457.9,400.803,469.83,400.803z"/>
</g>
<g>
</g>
</svg>
