<?xml version="1.0" encoding="utf-8"?>
<!-- Generator: Adobe Illustrator 16.0.0, SVG Export Plug-In . SVG Version: 6.00 Build 0)  -->
<!DOCTYPE svg PUBLIC "-//W3C//DTD SVG 1.1//EN" "http://www.w3.org/Graphics/SVG/1.1/DTD/svg11.dtd">
<svg version="1.1" id="Layer_1" xmlns="http://www.w3.org/2000/svg" xmlns:xlink="http://www.w3.org/1999/xlink" x="0px" y="0px"
	 width="792px" height="612px" viewBox="0 0 792 612" enable-background="new 0 0 792 612" xml:space="preserve">
<g>
	<path fill="#FFFFFF" stroke="#000000" stroke-miterlimit="10" d="M393.166,110.398c107.363,0,194.4,87.036,194.4,194.4
		s-87.037,194.4-194.4,194.4s-194.399-87.036-194.399-194.4S285.803,110.398,393.166,110.398z"/>
</g>
<g>
	<path fill="#7F3F98" stroke="#000000" stroke-miterlimit="10" d="M393.166,283.198c11.93,0,21.6,9.671,21.6,21.6
		c0,11.93-9.67,21.6-21.6,21.6s-21.6-9.67-21.6-21.6C371.566,292.869,381.236,283.198,393.166,283.198z"/>
</g>
<g>
	<path fill="#21409A" stroke="#000000" stroke-miterlimit="10" d="M172.066,283.198c11.93,0,21.6,9.671,21.6,21.6
		c0,11.93-9.67,21.6-21.6,21.6s-21.6-9.67-21.6-21.6C150.467,292.869,160.137,283.198,172.066,283.198z"/>
</g>
<g>
	<path fill="#F26522" stroke="#000000" stroke-miterlimit="10" d="M393.766,503.698c11.93,0,21.602,9.67,21.602,21.6
		s-9.672,21.6-21.602,21.6s-21.6-9.67-21.6-21.6S381.836,503.698,393.766,503.698z"/>
</g>
<g>
	<path fill="#ED1C24" stroke="#000000" stroke-miterlimit="10" d="M393.766,61.798c11.93,0,21.602,9.67,21.602,21.6
		c0,11.929-9.672,21.6-21.602,21.6s-21.6-9.671-21.6-21.6C372.166,71.468,381.836,61.798,393.766,61.798z"/>
</g>
<g>
	<path fill="#00A14B" stroke="#000000" stroke-miterlimit="10" d="M614.867,283.198c11.928,0,21.598,9.671,21.598,21.6
		c0,11.93-9.67,21.6-21.598,21.6c-11.93,0-21.602-9.67-21.602-21.6C593.266,292.869,602.938,283.198,614.867,283.198z"/>
</g>
<g>
</g>
</svg>
