<?xml version="1.0" encoding="utf-8"?>
<!-- Generator: Adobe Illustrator 16.0.0, SVG Export Plug-In . SVG Version: 6.00 Build 0)  -->
<!DOCTYPE svg PUBLIC "-//W3C//DTD SVG 1.1//EN" "http://www.w3.org/Graphics/SVG/1.1/DTD/svg11.dtd">
<svg version="1.1" id="Layer_1" xmlns="http://www.w3.org/2000/svg" xmlns:xlink="http://www.w3.org/1999/xlink" x="0px" y="0px"
	 width="792px" height="612px" viewBox="0 0 792 612" enable-background="new 0 0 792 612" xml:space="preserve">
<g>
	<path fill="#FFFFFF" stroke="#000000" stroke-miterlimit="10" d="M394.006,112.355c107.363,0,194.399,87.036,194.399,194.4
		s-87.036,194.4-194.399,194.4c-107.364,0-194.4-87.036-194.4-194.4S286.642,112.355,394.006,112.355z"/>
</g>
<g>
	<path fill="#7F3F98" stroke="#000000" stroke-miterlimit="10" d="M511.605,285.155c11.93,0,21.601,9.671,21.601,21.6
		c0,11.93-9.671,21.6-21.601,21.6s-21.6-9.67-21.6-21.6C490.006,294.826,499.676,285.155,511.605,285.155z"/>
</g>
<g>
	<path fill="#21409A" stroke="#000000" stroke-miterlimit="10" d="M394.605,63.755c11.93,0,21.601,9.67,21.601,21.6
		c0,11.929-9.671,21.6-21.601,21.6s-21.6-9.671-21.6-21.6C373.006,73.425,382.676,63.755,394.605,63.755z"/>
</g>
<g>
	<path fill="#F26522" stroke="#000000" stroke-miterlimit="10" d="M204.406,285.155c11.93,0,21.6,9.671,21.6,21.6
		c0,11.93-9.67,21.6-21.6,21.6s-21.6-9.67-21.6-21.6C182.807,294.826,192.477,285.155,204.406,285.155z"/>
</g>
<g>
</g>
<g>
	<path fill="#00A14B" stroke="#000000" stroke-miterlimit="10" d="M394.605,505.655c11.93,0,21.601,9.67,21.601,21.6
		s-9.671,21.6-21.601,21.6s-21.6-9.67-21.6-21.6S382.676,505.655,394.605,505.655z"/>
</g>
<g>
</g>
</svg>
