<?xml version="1.0" encoding="utf-8"?>
<!-- Generator: Adobe Illustrator 16.0.0, SVG Export Plug-In . SVG Version: 6.00 Build 0)  -->
<!DOCTYPE svg PUBLIC "-//W3C//DTD SVG 1.1//EN" "http://www.w3.org/Graphics/SVG/1.1/DTD/svg11.dtd">
<svg version="1.1" id="Layer_1" xmlns="http://www.w3.org/2000/svg" xmlns:xlink="http://www.w3.org/1999/xlink" x="0px" y="0px"
	 width="792px" height="612px" viewBox="0 0 792 612" enable-background="new 0 0 792 612" xml:space="preserve">
<g>
	<path fill="#FFFFFF" stroke="#000000" stroke-miterlimit="10" d="M394.097,110.703c107.363,0,194.398,87.036,194.398,194.4
		s-87.035,194.4-194.398,194.4c-107.365,0-194.4-87.036-194.4-194.4S286.731,110.703,394.097,110.703z"/>
</g>
<g>
	<path fill="#7F3F98" stroke="#000000" stroke-miterlimit="10" d="M583.396,283.502c11.93,0,21.6,9.671,21.6,21.6
		c0,11.93-9.67,21.6-21.6,21.6s-21.6-9.67-21.6-21.6C561.796,293.173,571.466,283.502,583.396,283.502z"/>
</g>
<g>
	<path fill="#21409A" stroke="#000000" stroke-miterlimit="10" d="M321.496,165.902c11.929,0,21.601,9.671,21.601,21.6
		c0,11.93-9.672,21.6-21.601,21.6s-21.601-9.67-21.601-21.6C299.896,175.573,309.567,165.902,321.496,165.902z"/>
</g>
<g>
	<path fill="#F26522" stroke="#000000" stroke-miterlimit="10" d="M355.696,474.303c11.929,0,21.6,9.671,21.6,21.6
		c0,11.93-9.671,21.601-21.6,21.601c-11.93,0-21.6-9.671-21.6-21.601C334.097,483.974,343.767,474.303,355.696,474.303z"/>
</g>
<g>
</g>
<g>
</g>
<g>
</g>
</svg>
