<?xml version="1.0" encoding="utf-8"?>
<!-- Generator: Adobe Illustrator 16.0.0, SVG Export Plug-In . SVG Version: 6.00 Build 0)  -->
<!DOCTYPE svg PUBLIC "-//W3C//DTD SVG 1.1//EN" "http://www.w3.org/Graphics/SVG/1.1/DTD/svg11.dtd">
<svg version="1.1" id="Layer_1" xmlns="http://www.w3.org/2000/svg" xmlns:xlink="http://www.w3.org/1999/xlink" x="0px" y="0px"
	 width="792px" height="612px" viewBox="0 0 792 612" enable-background="new 0 0 792 612" xml:space="preserve">
<g>
	<path fill="#FFFFFF" stroke="#000000" stroke-miterlimit="10" d="M394.097,112.05c107.363,0,194.398,87.036,194.398,194.4
		s-87.035,194.4-194.398,194.4c-107.365,0-194.4-87.036-194.4-194.4S286.731,112.05,394.097,112.05z"/>
</g>
<g>
	<path fill="#7F3F98" stroke="#000000" stroke-miterlimit="10" d="M583.396,284.85c11.93,0,21.6,9.671,21.6,21.6
		c0,11.93-9.67,21.6-21.6,21.6s-21.6-9.67-21.6-21.6C561.796,294.521,571.466,284.85,583.396,284.85z"/>
</g>
<g>
	<path fill="#21409A" stroke="#000000" stroke-miterlimit="10" d="M355.696,94.35c11.929,0,21.6,9.671,21.6,21.6
		s-9.671,21.6-21.6,21.6c-11.93,0-21.6-9.671-21.6-21.6S343.767,94.35,355.696,94.35z"/>
</g>
<g>
	<path fill="#F26522" stroke="#000000" stroke-miterlimit="10" d="M321.496,402.15c11.929,0,21.601,9.671,21.601,21.6
		c0,11.93-9.672,21.601-21.601,21.601s-21.601-9.671-21.601-21.601C299.896,411.821,309.567,402.15,321.496,402.15z"/>
</g>
<g>
</g>
<g>
</g>
<g>
</g>
</svg>
