<?xml version="1.0" encoding="utf-8"?>
<!-- Generator: Adobe Illustrator 16.0.0, SVG Export Plug-In . SVG Version: 6.00 Build 0)  -->
<!DOCTYPE svg PUBLIC "-//W3C//DTD SVG 1.1//EN" "http://www.w3.org/Graphics/SVG/1.1/DTD/svg11.dtd">
<svg version="1.1" id="Layer_1" xmlns="http://www.w3.org/2000/svg" xmlns:xlink="http://www.w3.org/1999/xlink" x="0px" y="0px"
	 width="792px" height="612px" viewBox="0 0 792 612" enable-background="new 0 0 792 612" xml:space="preserve">
<g>
	<path fill="#FFFFFF" stroke="#000000" stroke-miterlimit="10" d="M395.7,112.355c107.363,0,194.399,87.036,194.399,194.4
		s-87.036,194.4-194.399,194.4c-107.364,0-194.4-87.036-194.4-194.4S288.336,112.355,395.7,112.355z"/>
</g>
<g>
	<path fill="#7F3F98" stroke="#000000" stroke-miterlimit="10" d="M617.401,285.155c11.929,0,21.599,9.671,21.599,21.6
		c0,11.93-9.67,21.6-21.599,21.6c-11.93,0-21.601-9.67-21.601-21.6C595.8,294.826,605.471,285.155,617.401,285.155z"/>
</g>
<g>
	<path fill="#21409A" stroke="#000000" stroke-miterlimit="10" d="M396.3,63.755c11.93,0,21.601,9.67,21.601,21.6
		c0,11.929-9.671,21.6-21.601,21.6s-21.6-9.671-21.6-21.6C374.7,73.425,384.37,63.755,396.3,63.755z"/>
</g>
<g>
	<path fill="#F26522" stroke="#000000" stroke-miterlimit="10" d="M395.7,285.155c11.929,0,21.6,9.671,21.6,21.6
		c0,11.93-9.671,21.6-21.6,21.6c-11.93,0-21.601-9.67-21.601-21.6C374.1,294.826,383.771,285.155,395.7,285.155z"/>
</g>
<g>
</g>
<g>
	<path fill="#00A14B" stroke="#000000" stroke-miterlimit="10" d="M396.3,505.655c11.93,0,21.601,9.67,21.601,21.6
		s-9.671,21.6-21.601,21.6s-21.6-9.67-21.6-21.6S384.37,505.655,396.3,505.655z"/>
</g>
<g>
	<path fill="#FFDE17" stroke="#000000" stroke-miterlimit="10" d="M174.6,285.155c11.93,0,21.6,9.671,21.6,21.6
		c0,11.93-9.67,21.6-21.6,21.6c-11.929,0-21.6-9.67-21.6-21.6C153.001,294.826,162.671,285.155,174.6,285.155z"/>
</g>
</svg>
