<?xml version="1.0" encoding="utf-8"?>
<!-- Generator: Adobe Illustrator 16.0.0, SVG Export Plug-In . SVG Version: 6.00 Build 0)  -->
<!DOCTYPE svg PUBLIC "-//W3C//DTD SVG 1.1//EN" "http://www.w3.org/Graphics/SVG/1.1/DTD/svg11.dtd">
<svg version="1.1" id="Layer_1" xmlns="http://www.w3.org/2000/svg" xmlns:xlink="http://www.w3.org/1999/xlink" x="0px" y="0px"
	 width="792px" height="612px" viewBox="0 0 792 612" enable-background="new 0 0 792 612" xml:space="preserve">
<g>
	<path fill="#FFFFFF" stroke="#000000" stroke-miterlimit="10" d="M394.306,112.05c107.363,0,194.4,87.036,194.4,194.4
		s-87.037,194.4-194.4,194.4c-107.364,0-194.4-87.036-194.4-194.4S286.941,112.05,394.306,112.05z"/>
</g>
<g>
</g>
<g>
	<path fill="#21409A" stroke="#000000" stroke-miterlimit="10" d="M466.305,94.65c11.93,0,21.6,9.67,21.6,21.6
		c0,11.93-9.67,21.6-21.6,21.6s-21.6-9.67-21.6-21.6C444.706,104.321,454.375,94.65,466.305,94.65z"/>
</g>
<g>
	<path fill="#F26522" stroke="#000000" stroke-miterlimit="10" d="M549.405,402.45c11.93,0,21.602,9.671,21.602,21.6
		c0,11.93-9.672,21.601-21.602,21.601s-21.6-9.671-21.6-21.601C527.805,412.121,537.475,402.45,549.405,402.45z"/>
</g>
<g>
</g>
<g>
</g>
<g>
	<path fill="#FFDE17" stroke="#000000" stroke-miterlimit="10" d="M277.605,284.85c11.93,0,21.6,9.671,21.6,21.6
		c0,11.93-9.67,21.6-21.6,21.6c-11.929,0-21.6-9.67-21.6-21.6C256.006,294.521,265.676,284.85,277.605,284.85z"/>
</g>
</svg>
