<?xml version="1.0" encoding="utf-8"?>
<!-- Generator: Adobe Illustrator 16.0.0, SVG Export Plug-In . SVG Version: 6.00 Build 0)  -->
<!DOCTYPE svg PUBLIC "-//W3C//DTD SVG 1.1//EN" "http://www.w3.org/Graphics/SVG/1.1/DTD/svg11.dtd">
<svg version="1.1" id="Layer_1" xmlns="http://www.w3.org/2000/svg" xmlns:xlink="http://www.w3.org/1999/xlink" x="0px" y="0px"
	 width="792px" height="612px" viewBox="0 0 792 612" enable-background="new 0 0 792 612" xml:space="preserve">
<g>
	<path fill="#FFFFFF" stroke="#000000" stroke-miterlimit="10" d="M394.096,112.572c107.363,0,194.398,87.035,194.398,194.399
		s-87.035,194.4-194.398,194.4c-107.365,0-194.4-87.036-194.4-194.4S286.731,112.572,394.096,112.572z"/>
</g>
<g>
</g>
<g>
	<path fill="#21409A" stroke="#000000" stroke-miterlimit="10" d="M204.496,168.072c11.93,0,21.601,9.67,21.601,21.6
		s-9.671,21.6-21.601,21.6c-11.929,0-21.599-9.67-21.599-21.6S192.567,168.072,204.496,168.072z"/>
</g>
<g>
	<path fill="#F26522" stroke="#000000" stroke-miterlimit="10" d="M511.696,96.072c11.93,0,21.6,9.67,21.6,21.6
		s-9.67,21.6-21.6,21.6s-21.6-9.67-21.6-21.6S499.766,96.072,511.696,96.072z"/>
</g>
<g>
	<path fill="#ED1C24" stroke="#000000" stroke-miterlimit="10" d="M277.395,476.172c11.93,0,21.601,9.671,21.601,21.6
		c0,11.93-9.671,21.601-21.601,21.601c-11.929,0-21.6-9.671-21.6-21.601C255.795,485.843,265.466,476.172,277.395,476.172z"/>
</g>
<g>
	<path fill="#00A14B" stroke="#000000" stroke-miterlimit="10" d="M583.696,402.972c11.93,0,21.6,9.671,21.6,21.6
		c0,11.93-9.67,21.601-21.6,21.601s-21.6-9.671-21.6-21.601C562.096,412.643,571.766,402.972,583.696,402.972z"/>
</g>
<g>
	<path fill="#FFDE17" stroke="#000000" stroke-miterlimit="10" d="M394.096,285.371c11.928,0,21.6,9.672,21.6,21.601
		c0,11.93-9.672,21.6-21.6,21.6c-11.93,0-21.602-9.67-21.602-21.6C372.495,295.043,382.167,285.371,394.096,285.371z"/>
</g>
</svg>
