<?xml version="1.0" encoding="utf-8"?>
<!-- Generator: Adobe Illustrator 16.0.0, SVG Export Plug-In . SVG Version: 6.00 Build 0)  -->
<!DOCTYPE svg PUBLIC "-//W3C//DTD SVG 1.1//EN" "http://www.w3.org/Graphics/SVG/1.1/DTD/svg11.dtd">
<svg version="1.1" id="Layer_1" xmlns="http://www.w3.org/2000/svg" xmlns:xlink="http://www.w3.org/1999/xlink" x="0px" y="0px"
	 width="792px" height="612px" viewBox="0 0 792 612" enable-background="new 0 0 792 612" xml:space="preserve">
<g>
	<path fill="#FFFFFF" stroke="#000000" stroke-miterlimit="10" d="M395.235,110.398c107.363,0,194.4,87.036,194.4,194.4
		s-87.038,194.4-194.4,194.4c-107.363,0-194.4-87.036-194.4-194.4S287.872,110.398,395.235,110.398z"/>
</g>
<g>
</g>
<g>
</g>
<g>
	<path fill="#F26522" stroke="#000000" stroke-miterlimit="10" d="M395.834,503.698c11.93,0,21.602,9.67,21.602,21.6
		s-9.672,21.6-21.602,21.6s-21.6-9.67-21.6-21.6S383.905,503.698,395.834,503.698z"/>
</g>
<g>
	<path fill="#ED1C24" stroke="#000000" stroke-miterlimit="10" d="M395.834,61.798c11.93,0,21.602,9.67,21.602,21.6
		c0,11.929-9.672,21.6-21.602,21.6s-21.6-9.671-21.6-21.6C374.235,71.468,383.905,61.798,395.834,61.798z"/>
</g>
<g>
	<path fill="#00A14B" stroke="#000000" stroke-miterlimit="10" d="M205.635,283.198c11.929,0,21.6,9.671,21.6,21.6
		c0,11.93-9.67,21.6-21.6,21.6c-11.93,0-21.6-9.67-21.6-21.6C184.035,292.869,193.706,283.198,205.635,283.198z"/>
</g>
<g>
	<path fill="#FFDE17" stroke="#000000" stroke-miterlimit="10" d="M512.834,283.198c11.93,0,21.602,9.671,21.602,21.6
		c0,11.93-9.672,21.6-21.602,21.6s-21.6-9.67-21.6-21.6C491.235,292.869,500.905,283.198,512.834,283.198z"/>
</g>
</svg>
