<?xml version="1.0" encoding="utf-8"?>
<!-- Generator: Adobe Illustrator 16.0.0, SVG Export Plug-In . SVG Version: 6.00 Build 0)  -->
<!DOCTYPE svg PUBLIC "-//W3C//DTD SVG 1.1//EN" "http://www.w3.org/Graphics/SVG/1.1/DTD/svg11.dtd">
<svg version="1.1" id="Layer_1" xmlns="http://www.w3.org/2000/svg" xmlns:xlink="http://www.w3.org/1999/xlink" x="0px" y="0px"
	 width="792px" height="612px" viewBox="0 0 792 612" enable-background="new 0 0 792 612" xml:space="preserve">
<g>
	<path fill="#FFFFFF" stroke="#000000" stroke-miterlimit="10" d="M395.235,112.572c107.363,0,194.4,87.035,194.4,194.399
		s-87.038,194.4-194.4,194.4c-107.363,0-194.4-87.036-194.4-194.4S287.872,112.572,395.235,112.572z"/>
</g>
<g>
</g>
<g>
	<path fill="#21409A" stroke="#000000" stroke-miterlimit="10" d="M240.437,167.472c11.928,0,21.599,9.671,21.599,21.601
		c0,11.929-9.671,21.6-21.599,21.6c-11.931,0-21.602-9.671-21.602-21.6C218.835,177.143,228.506,167.472,240.437,167.472z"/>
</g>
<g>
</g>
<g>
	<path fill="#ED1C24" stroke="#000000" stroke-miterlimit="10" d="M322.035,476.172c11.929,0,21.6,9.671,21.6,21.6
		c0,11.93-9.671,21.601-21.6,21.601c-11.929,0-21.599-9.671-21.599-21.601C300.437,485.843,310.106,476.172,322.035,476.172z"/>
</g>
<g>
</g>
<g>
	<path fill="#FFDE17" stroke="#000000" stroke-miterlimit="10" d="M512.834,285.371c11.93,0,21.602,9.672,21.602,21.601
		c0,11.93-9.672,21.6-21.602,21.6s-21.6-9.67-21.6-21.6C491.235,295.043,500.905,285.371,512.834,285.371z"/>
</g>
</svg>
