<?xml version="1.0" encoding="utf-8"?>
<!-- Generator: Adobe Illustrator 16.0.0, SVG Export Plug-In . SVG Version: 6.00 Build 0)  -->
<!DOCTYPE svg PUBLIC "-//W3C//DTD SVG 1.1//EN" "http://www.w3.org/Graphics/SVG/1.1/DTD/svg11.dtd">
<svg version="1.1" id="Layer_1" xmlns="http://www.w3.org/2000/svg" xmlns:xlink="http://www.w3.org/1999/xlink" x="0px" y="0px"
	 width="792px" height="612px" viewBox="0 0 792 612" enable-background="new 0 0 792 612" xml:space="preserve">
<g>
	<path fill="#FFFFFF" stroke="#000000" stroke-miterlimit="10" d="M396.84,110.398c107.363,0,194.4,87.036,194.4,194.4
		s-87.037,194.4-194.4,194.4c-107.364,0-194.4-87.036-194.4-194.4S289.476,110.398,396.84,110.398z"/>
</g>
<g>
	<path fill="#7F3F98" stroke="#000000" stroke-miterlimit="10" d="M175.74,283.198c11.93,0,21.6,9.671,21.6,21.6
		c0,11.93-9.67,21.6-21.6,21.6c-11.929,0-21.6-9.67-21.6-21.6C154.141,292.869,163.811,283.198,175.74,283.198z"/>
</g>
<g>
</g>
<g>
	<path fill="#F26522" stroke="#000000" stroke-miterlimit="10" d="M397.439,503.698c11.93,0,21.602,9.67,21.602,21.6
		s-9.672,21.6-21.602,21.6c-11.929,0-21.6-9.67-21.6-21.6S385.51,503.698,397.439,503.698z"/>
</g>
<g>
	<path fill="#ED1C24" stroke="#000000" stroke-miterlimit="10" d="M397.439,61.798c11.93,0,21.602,9.67,21.602,21.6
		c0,11.929-9.672,21.6-21.602,21.6c-11.929,0-21.6-9.671-21.6-21.6C375.84,71.468,385.51,61.798,397.439,61.798z"/>
</g>
<g>
	<path fill="#00A14B" stroke="#000000" stroke-miterlimit="10" d="M396.84,283.198c11.929,0,21.599,9.671,21.599,21.6
		c0,11.93-9.67,21.6-21.599,21.6c-11.93,0-21.601-9.67-21.601-21.6C375.24,292.869,384.911,283.198,396.84,283.198z"/>
</g>
<g>
	<path fill="#FFDE17" stroke="#000000" stroke-miterlimit="10" d="M618.541,283.198c11.928,0,21.598,9.671,21.598,21.6
		c0,11.93-9.67,21.6-21.598,21.6c-11.93,0-21.602-9.67-21.602-21.6C596.939,292.869,606.611,283.198,618.541,283.198z"/>
</g>
</svg>
