<?xml version="1.0" encoding="utf-8"?>
<!-- Generator: Adobe Illustrator 16.0.0, SVG Export Plug-In . SVG Version: 6.00 Build 0)  -->
<!DOCTYPE svg PUBLIC "-//W3C//DTD SVG 1.1//EN" "http://www.w3.org/Graphics/SVG/1.1/DTD/svg11.dtd">
<svg version="1.1" id="Layer_1" xmlns="http://www.w3.org/2000/svg" xmlns:xlink="http://www.w3.org/1999/xlink" x="0px" y="0px"
	 width="792px" height="612px" viewBox="0 0 792 612" enable-background="new 0 0 792 612" xml:space="preserve">
<g>
	<path fill="#FFFFFF" stroke="#000000" stroke-miterlimit="10" d="M396.631,112.572c107.363,0,194.398,87.035,194.398,194.399
		s-87.035,194.4-194.398,194.4c-107.365,0-194.4-87.036-194.4-194.4S289.266,112.572,396.631,112.572z"/>
</g>
<g>
	<path fill="#7F3F98" stroke="#000000" stroke-miterlimit="10" d="M207.03,285.371c11.93,0,21.601,9.672,21.601,21.601
		c0,11.93-9.671,21.6-21.601,21.6c-11.929,0-21.6-9.67-21.6-21.6C185.431,295.043,195.102,285.371,207.03,285.371z"/>
</g>
<g>
	<path fill="#21409A" stroke="#000000" stroke-miterlimit="10" d="M469.83,167.472c11.93,0,21.6,9.671,21.6,21.601
		c0,11.929-9.67,21.6-21.6,21.6s-21.6-9.671-21.6-21.6C448.23,177.143,457.9,167.472,469.83,167.472z"/>
</g>
<g>
</g>
<g>
	<path fill="#ED1C24" stroke="#000000" stroke-miterlimit="10" d="M434.129,476.172c11.93,0,21.602,9.671,21.602,21.6
		c0,11.93-9.672,21.601-21.602,21.601c-11.928,0-21.6-9.671-21.6-21.601C412.529,485.843,422.201,476.172,434.129,476.172z"/>
</g>
<g>
</g>
<g>
</g>
</svg>
