<?xml version="1.0" encoding="utf-8"?>
<!-- Generator: Adobe Illustrator 16.0.0, SVG Export Plug-In . SVG Version: 6.00 Build 0)  -->
<!DOCTYPE svg PUBLIC "-//W3C//DTD SVG 1.1//EN" "http://www.w3.org/Graphics/SVG/1.1/DTD/svg11.dtd">
<svg version="1.1" id="Layer_1" xmlns="http://www.w3.org/2000/svg" xmlns:xlink="http://www.w3.org/1999/xlink" x="0px" y="0px"
	 width="792px" height="612px" viewBox="0 0 792 612" enable-background="new 0 0 792 612" xml:space="preserve">
<g>
	<path fill="#FFFFFF" stroke="#000000" stroke-miterlimit="10" d="M396.631,112.877c107.363,0,194.398,87.035,194.398,194.399
		s-87.035,194.4-194.398,194.4c-107.365,0-194.4-87.036-194.4-194.4S289.266,112.877,396.631,112.877z"/>
</g>
<g>
	<path fill="#7F3F98" stroke="#000000" stroke-miterlimit="10" d="M207.03,285.676c11.93,0,21.601,9.672,21.601,21.601
		c0,11.93-9.671,21.6-21.601,21.6c-11.929,0-21.6-9.67-21.6-21.6C185.431,295.348,195.102,285.676,207.03,285.676z"/>
</g>
<g>
	<path fill="#21409A" stroke="#000000" stroke-miterlimit="10" d="M514.23,285.676c11.93,0,21.6,9.672,21.6,21.601
		c0,11.93-9.67,21.6-21.6,21.6s-21.6-9.67-21.6-21.6C492.631,295.348,502.301,285.676,514.23,285.676z"/>
</g>
<g>
	<path fill="#F26522" stroke="#000000" stroke-miterlimit="10" d="M397.23,64.276c11.93,0,21.6,9.671,21.6,21.601
		c0,11.929-9.67,21.6-21.6,21.6s-21.601-9.671-21.601-21.6C375.63,73.947,385.301,64.276,397.23,64.276z"/>
</g>
<g>
	<path fill="#ED1C24" stroke="#000000" stroke-miterlimit="10" d="M397.23,506.177c11.93,0,21.6,9.67,21.6,21.6
		s-9.67,21.6-21.6,21.6s-21.601-9.67-21.601-21.6S385.301,506.177,397.23,506.177z"/>
</g>
<g>
</g>
<g>
</g>
</svg>
