<?xml version="1.0" encoding="utf-8"?>
<!-- Generator: Adobe Illustrator 16.0.0, SVG Export Plug-In . SVG Version: 6.00 Build 0)  -->
<!DOCTYPE svg PUBLIC "-//W3C//DTD SVG 1.1//EN" "http://www.w3.org/Graphics/SVG/1.1/DTD/svg11.dtd">
<svg version="1.1" id="Layer_1" xmlns="http://www.w3.org/2000/svg" xmlns:xlink="http://www.w3.org/1999/xlink" x="0px" y="0px"
	 width="792px" height="612px" viewBox="0 0 792 612" enable-background="new 0 0 792 612" xml:space="preserve">
<g>
	<path fill="#FFFFFF" stroke="#000000" stroke-miterlimit="10" d="M397.47,111.225c107.364,0,194.399,87.035,194.399,194.399
		s-87.035,194.4-194.399,194.4s-194.399-87.036-194.399-194.4S290.105,111.225,397.47,111.225z"/>
</g>
<g>
	<path fill="#7F3F98" stroke="#000000" stroke-miterlimit="10" d="M280.77,284.023c11.93,0,21.6,9.672,21.6,21.601
		c0,11.93-9.67,21.6-21.6,21.6s-21.6-9.67-21.6-21.6C259.17,293.695,268.84,284.023,280.77,284.023z"/>
</g>
<g>
	<path fill="#21409A" stroke="#000000" stroke-miterlimit="10" d="M469.47,93.824c11.929,0,21.6,9.67,21.6,21.6
		s-9.671,21.6-21.6,21.6c-11.93,0-21.601-9.67-21.601-21.6S457.54,93.824,469.47,93.824z"/>
</g>
<g>
</g>
<g>
	<path fill="#ED1C24" stroke="#000000" stroke-miterlimit="10" d="M552.569,401.624c11.931,0,21.601,9.671,21.601,21.6
		c0,11.93-9.67,21.601-21.601,21.601c-11.93,0-21.6-9.671-21.6-21.601C530.97,411.295,540.64,401.624,552.569,401.624z"/>
</g>
<g>
</g>
<g>
</g>
</svg>
