<?xml version="1.0" encoding="utf-8"?>
<!-- Generator: Adobe Illustrator 16.0.0, SVG Export Plug-In . SVG Version: 6.00 Build 0)  -->
<!DOCTYPE svg PUBLIC "-//W3C//DTD SVG 1.1//EN" "http://www.w3.org/Graphics/SVG/1.1/DTD/svg11.dtd">
<svg version="1.1" id="Layer_1" xmlns="http://www.w3.org/2000/svg" xmlns:xlink="http://www.w3.org/1999/xlink" x="0px" y="0px"
	 width="792px" height="612px" viewBox="0 0 792 612" enable-background="new 0 0 792 612" xml:space="preserve">
<g>
	<path fill="#FFFFFF" stroke="#000000" stroke-miterlimit="10" d="M397.77,112.572c107.363,0,194.4,87.035,194.4,194.399
		s-87.037,194.4-194.4,194.4s-194.399-87.036-194.399-194.4S290.406,112.572,397.77,112.572z"/>
</g>
<g>
	<path fill="#7F3F98" stroke="#000000" stroke-miterlimit="10" d="M281.07,285.371c11.93,0,21.6,9.672,21.6,21.601
		c0,11.93-9.67,21.6-21.6,21.6s-21.6-9.67-21.6-21.6C259.471,295.043,269.141,285.371,281.07,285.371z"/>
</g>
<g>
	<path fill="#21409A" stroke="#000000" stroke-miterlimit="10" d="M552.869,167.472c11.93,0,21.602,9.671,21.602,21.601
		c0,11.929-9.672,21.6-21.602,21.6s-21.6-9.671-21.6-21.6C531.27,177.143,540.939,167.472,552.869,167.472z"/>
</g>
<g>
</g>
<g>
	<path fill="#ED1C24" stroke="#000000" stroke-miterlimit="10" d="M470.369,476.172c11.93,0,21.602,9.671,21.602,21.6
		c0,11.93-9.672,21.601-21.602,21.601s-21.6-9.671-21.6-21.601C448.77,485.843,458.439,476.172,470.369,476.172z"/>
</g>
<g>
</g>
<g>
</g>
</svg>
