<?xml version="1.0" encoding="utf-8"?>
<!-- Generator: Adobe Illustrator 16.0.0, SVG Export Plug-In . SVG Version: 6.00 Build 0)  -->
<!DOCTYPE svg PUBLIC "-//W3C//DTD SVG 1.1//EN" "http://www.w3.org/Graphics/SVG/1.1/DTD/svg11.dtd">
<svg version="1.1" id="Layer_1" xmlns="http://www.w3.org/2000/svg" xmlns:xlink="http://www.w3.org/1999/xlink" x="0px" y="0px"
	 width="792px" height="612px" viewBox="0 0 792 612" enable-background="new 0 0 792 612" xml:space="preserve">
<g>
	<path fill="#FFFFFF" stroke="#000000" stroke-miterlimit="10" d="M393.166,111.225c107.363,0,194.4,87.035,194.4,194.399
		s-87.037,194.4-194.4,194.4s-194.399-87.036-194.399-194.4S285.803,111.225,393.166,111.225z"/>
</g>
<g>
	<path fill="#7F3F98" stroke="#000000" stroke-miterlimit="10" d="M393.166,284.023c11.93,0,21.6,9.672,21.6,21.601
		c0,11.93-9.67,21.6-21.6,21.6s-21.6-9.67-21.6-21.6C371.566,293.695,381.236,284.023,393.166,284.023z"/>
</g>
<g>
	<path fill="#21409A" stroke="#000000" stroke-miterlimit="10" d="M510.766,94.725c11.93,0,21.602,9.67,21.602,21.6
		s-9.672,21.6-21.602,21.6s-21.6-9.67-21.6-21.6S498.836,94.725,510.766,94.725z"/>
</g>
<g>
	<path fill="#F26522" stroke="#000000" stroke-miterlimit="10" d="M203.566,166.725c11.93,0,21.6,9.67,21.6,21.6
		s-9.67,21.6-21.6,21.6s-21.6-9.67-21.6-21.6S191.637,166.725,203.566,166.725z"/>
</g>
<g>
	<path fill="#ED1C24" stroke="#000000" stroke-miterlimit="10" d="M582.766,401.624c11.93,0,21.602,9.671,21.602,21.6
		c0,11.93-9.672,21.601-21.602,21.601s-21.6-9.671-21.6-21.601C561.166,411.295,570.836,401.624,582.766,401.624z"/>
</g>
<g>
	<path fill="#00A14B" stroke="#000000" stroke-miterlimit="10" d="M276.467,474.824c11.93,0,21.6,9.671,21.6,21.6
		c0,11.93-9.67,21.601-21.6,21.601s-21.6-9.671-21.6-21.601C254.867,484.495,264.537,474.824,276.467,474.824z"/>
</g>
<g>
</g>
</svg>
