<?xml version="1.0" encoding="utf-8"?>
<!-- Generator: Adobe Illustrator 16.0.0, SVG Export Plug-In . SVG Version: 6.00 Build 0)  -->
<!DOCTYPE svg PUBLIC "-//W3C//DTD SVG 1.1//EN" "http://www.w3.org/Graphics/SVG/1.1/DTD/svg11.dtd">
<svg version="1.1" id="Layer_1" xmlns="http://www.w3.org/2000/svg" xmlns:xlink="http://www.w3.org/1999/xlink" x="0px" y="0px"
	 width="792px" height="612px" viewBox="0 0 792 612" enable-background="new 0 0 792 612" xml:space="preserve">
<g>
	<path fill="#FFFFFF" stroke="#000000" stroke-miterlimit="10" d="M394.307,110.398c107.362,0,194.399,87.036,194.399,194.4
		s-87.037,194.4-194.399,194.4c-107.365,0-194.4-87.036-194.4-194.4S286.941,110.398,394.307,110.398z"/>
</g>
<g>
	<path fill="#7F3F98" stroke="#000000" stroke-miterlimit="10" d="M511.905,283.198c11.93,0,21.602,9.671,21.602,21.6
		c0,11.93-9.672,21.6-21.602,21.6s-21.6-9.67-21.6-21.6C490.306,292.869,499.976,283.198,511.905,283.198z"/>
</g>
<g>
	<path fill="#21409A" stroke="#000000" stroke-miterlimit="10" d="M204.706,283.198c11.929,0,21.601,9.671,21.601,21.6
		c0,11.93-9.672,21.6-21.601,21.6s-21.601-9.67-21.601-21.6C183.105,292.869,192.777,283.198,204.706,283.198z"/>
</g>
<g>
	<path fill="#F26522" stroke="#000000" stroke-miterlimit="10" d="M394.905,503.698c11.93,0,21.602,9.67,21.602,21.6
		s-9.672,21.6-21.602,21.6c-11.929,0-21.6-9.67-21.6-21.6S382.977,503.698,394.905,503.698z"/>
</g>
<g>
	<path fill="#ED1C24" stroke="#000000" stroke-miterlimit="10" d="M394.905,61.798c11.93,0,21.602,9.67,21.602,21.6
		c0,11.929-9.672,21.6-21.602,21.6c-11.929,0-21.6-9.671-21.6-21.6C373.306,71.468,382.977,61.798,394.905,61.798z"/>
</g>
<g>
</g>
<g>
</g>
</svg>
