<?xml version="1.0" encoding="utf-8"?>
<!-- Generator: Adobe Illustrator 16.0.0, SVG Export Plug-In . SVG Version: 6.00 Build 0)  -->
<!DOCTYPE svg PUBLIC "-//W3C//DTD SVG 1.1//EN" "http://www.w3.org/Graphics/SVG/1.1/DTD/svg11.dtd">
<svg version="1.1" id="Layer_1" xmlns="http://www.w3.org/2000/svg" xmlns:xlink="http://www.w3.org/1999/xlink" x="0px" y="0px"
	 width="792px" height="612px" viewBox="0 0 792 612" enable-background="new 0 0 792 612" xml:space="preserve">
<g>
	<path fill="#FFFFFF" stroke="#000000" stroke-miterlimit="10" d="M395.235,112.05c107.363,0,194.4,87.036,194.4,194.4
		s-87.037,194.4-194.4,194.4s-194.399-87.036-194.399-194.4S287.872,112.05,395.235,112.05z"/>
</g>
<g>
	<path fill="#7F3F98" stroke="#000000" stroke-miterlimit="10" d="M616.937,284.85c11.928,0,21.598,9.671,21.598,21.6
		c0,11.93-9.67,21.6-21.598,21.6c-11.93,0-21.601-9.67-21.601-21.6C595.336,294.521,605.007,284.85,616.937,284.85z"/>
</g>
<g>
	<path fill="#21409A" stroke="#000000" stroke-miterlimit="10" d="M395.235,94.95c11.93,0,21.601,9.67,21.601,21.6
		c0,11.929-9.671,21.6-21.601,21.6s-21.6-9.671-21.6-21.6C373.636,104.621,383.306,94.95,395.235,94.95z"/>
</g>
<g>
	<path fill="#F26522" stroke="#000000" stroke-miterlimit="10" d="M395.235,402.45c11.93,0,21.601,9.671,21.601,21.6
		c0,11.93-9.671,21.601-21.601,21.601s-21.6-9.671-21.6-21.601C373.636,412.121,383.306,402.45,395.235,402.45z"/>
</g>
<g>
</g>
<g>
</g>
<g>
	<path fill="#FFDE17" stroke="#000000" stroke-miterlimit="10" d="M174.136,284.85c11.93,0,21.6,9.671,21.6,21.6
		c0,11.93-9.67,21.6-21.6,21.6s-21.6-9.67-21.6-21.6C152.536,294.521,162.206,284.85,174.136,284.85z"/>
</g>
</svg>
