<?xml version="1.0" encoding="utf-8"?>
<!-- Generator: Adobe Illustrator 16.0.0, SVG Export Plug-In . SVG Version: 6.00 Build 0)  -->
<!DOCTYPE svg PUBLIC "-//W3C//DTD SVG 1.1//EN" "http://www.w3.org/Graphics/SVG/1.1/DTD/svg11.dtd">
<svg version="1.1" xmlns="http://www.w3.org/2000/svg" xmlns:xlink="http://www.w3.org/1999/xlink" x="0px" y="0px" width="2094px"
	 height="2094px" viewBox="0 0 2094 2094" enable-background="new 0 0 2094 2094" xml:space="preserve">
<g id="Layer_6_copy">
	<g>
		<path fill="#F69799" d="M507.325,1230.722c-7.154,21.004-65.975-11.377-77.102-17.504
			c-44.513-24.503-19.078-71.761-38.949-112.892c-26.231-57.76-76.308-92.766-60.411-167.153
			c11.128-46.383,49.282-98.016,92.205-110.268c47.692-14.002,93,30.63,115.256,72.637"/>
		<g>
			<path fill="#996666" d="M502.995,1231.328c-2.104,5.625-8.208,4.286-13.058,3.464c-8.539-1.447-16.794-4.69-24.745-8.024
				c-13.948-5.849-29.869-12.617-41.5-22.494c-16.505-14.015-17.676-36.128-18.673-56.187c-0.539-10.846-1.207-21.681-3.613-32.301
				c-2.534-11.186-7.824-21.526-13.282-31.531c-20.89-38.292-52.573-71.825-55.738-117.348c-1.785-25.681,5.966-50.67,17.82-73.175
				c11.957-22.699,29.196-43.976,50.742-58.171c10.835-7.138,23.237-12.377,36.317-12.974c13.937-0.636,27.455,4.236,39.407,11.034
				c24.745,14.075,44.053,38.318,57.307,63.086c1.471,2.75,9.839-0.188,8.693-2.329c-21.525-40.226-63.869-85.346-114.297-74.842
				c-23.085,4.808-42.809,19.083-58.794,35.899c-17.341,18.244-30.639,40.748-38.967,64.457
				c-7.938,22.598-9.408,47.301-3.521,70.553c5.228,20.647,16.417,39.119,27.852,56.846c12.333,19.12,25.626,38.053,34.199,59.265
				c8.177,20.236,6.074,42.448,8.647,63.676c1.92,15.84,8.072,29.995,20.964,39.877c8.801,6.745,19.788,11.58,29.758,16.293
				c11.961,5.655,24.63,11.06,37.792,13.074c8.854,1.354,21.68,0.451,25.352-9.36
				C512.614,1227.554,504.001,1228.64,502.995,1231.328L502.995,1231.328z"/>
		</g>
	</g>
	<g>
		<g>
			<path fill="#996666" d="M547.727,1007.514c-3.983-21.58-7.348-43.334-13.999-64.304c-6.266-19.752-16.114-39.358-33.081-51.983
				c-18.072-13.447-42.334-15.996-63.788-10.895c-23.152,5.505-41.254,21.858-49.818,43.918
				c-11.157,28.738-4.399,62.268,6.531,89.967c1.05,2.66,9.607-0.013,8.693-2.329c-8.846-22.417-14.316-47-11.068-71.141
				c3.313-24.63,18.164-47.716,42.544-55.612c22.516-7.292,48.181-1.22,65.375,14.812c15.949,14.87,23.822,36.652,29.294,57.215
				c4.611,17.324,7.372,35.07,10.623,52.68C539.497,1012.356,548.237,1010.28,547.727,1007.514L547.727,1007.514z"/>
		</g>
	</g>
	<g>
		<g>
			<path fill="#996666" d="M515.084,900.833c-21.401-5.706-38.912,13.901-49.54,29.895c-11.586,17.436-18.821,37.627-23.509,57.917
				c-9.449,40.887-9.678,89.18,10.357,127.09c1.421,2.688,9.787-0.261,8.693-2.33c-18.059-34.171-19.126-76.153-12.882-113.516
				c3.221-19.273,8.939-38.263,17.62-55.792c3.881-7.837,8.561-15.269,14-22.116c6.365-8.015,16.765-20.307,28.264-17.241
				c2.042,0.544,4.292,0.106,6.127-0.92C515.053,903.351,517.149,901.383,515.084,900.833L515.084,900.833z"/>
		</g>
	</g>
	<g>
		<g>
			<path fill="#996666" d="M523.633,1019.464c-8.048-8.789-21.513,3.829-26.486,10.005c-6.715,8.34-11.084,16.971-13.431,27.33
				c-3.088,13.635-11.709,56.285,12.322,56.007c0.986-0.012,8.476-1.338,6.929-3.202c-14.9-17.962-40.803,1.604-51.677,14.297
				c-7.315,8.538-13.525,18.534-16.719,29.375c-2.133,7.241-2.975,17.006,4.557,21.395c2.142,1.248,9.238-2.326,8.199-2.932
				c-14.718-8.576,1.261-34.24,7.601-43.125c5.656-7.926,12.74-15.352,21.238-20.229c6.884-3.952,13.641-1.831,18.602,4.15
				c2.31-1.067,4.619-2.135,6.929-3.202c-8.675,0.101-11.395-9.316-12.385-16.35c-1.459-10.361-0.114-21.247,1.706-31.474
				c1.343-7.546,2.933-14.999,6.729-21.705c2.529-4.468,5.426-8.739,8.645-12.737c1.776-2.206,3.792-4.227,5.996-6.002
				c0.487-0.367,0.995-0.702,1.524-1.005c-1.721,0.102-1.977,0.27-0.766,0.502c0.921,0.361,1.639,1.125,2.289,1.834
				C516.886,1023.982,524.91,1020.859,523.633,1019.464L523.633,1019.464z"/>
		</g>
	</g>
	<g>
		<path fill="#F69799" d="M1585.566,1230.722c7.152,21.004,65.973-11.377,77.102-17.504c44.513-24.503,19.077-71.761,38.949-112.892
			c26.23-57.76,76.307-92.766,60.41-167.153c-11.129-46.383-49.283-98.016-92.205-110.268c-47.692-14.002-93,30.63-115.257,72.637"
			/>
		<g>
			<path fill="#996666" d="M1581.22,1231.887c4.967,13.275,25.739,7.393,35.418,4.419c15.553-4.777,30.346-12.089,44.633-19.79
				c7.616-4.105,14.683-8.675,20.544-15.133c6.529-7.193,10.174-16.465,12.132-25.854c4.34-20.815,1.57-42.381,7.21-63.057
				c5.941-21.777,20.265-41.566,32.458-60.24c11.612-17.783,23.191-35.83,29.976-56.103c15.943-47.646-3.192-98.433-34.139-135.501
				c-11.986-14.358-26.616-26.847-43.552-34.955c-16.516-7.907-34.593-9.493-52.289-4.997
				c-37.296,9.476-65.927,42.867-83.375,75.473c-1.143,2.135,7.293,1.341,8.66-1.213c12.3-22.985,29.517-44.553,51.381-59.07
				c10.382-6.894,21.956-11.746,34.396-13.089c12.29-1.327,24.5,2.204,35.484,7.463c22.557,10.798,40.524,30.501,54.118,51.064
				c14.186,21.459,24.137,46.224,26.144,71.981c1.783,22.881-4.17,44.933-14.44,65.223c-9.967,19.689-23.333,37.466-34.744,56.307
				c-5.821,9.612-11.242,19.564-15.648,29.912c-4.342,10.198-6.011,21.317-6.924,32.288c-1.658,19.907,0.285,42.143-11.168,59.62
				c-5.429,8.284-13.556,13.411-22.082,18.007c-7.493,4.039-15.115,7.833-22.906,11.268c-8.392,3.699-17.14,7.22-26.193,8.896
				c-5.938,1.1-13.86,1.539-16.399-5.249C1588.869,1226.766,1580.277,1229.367,1581.22,1231.887L1581.22,1231.887z"/>
		</g>
	</g>
	<g>
		<g>
			<path fill="#996666" d="M1553.832,1008.042c3.984-21.58,7.348-43.334,14-64.303c6.416-20.228,16.691-41.009,35.207-52.676
				c20.69-13.037,48.928-11.298,69.17,1.673c21.056,13.493,29.928,38.634,30.438,62.63c0.425,19.926-4.731,39.911-11.998,58.326
				c-0.922,2.334,7.624,1.308,8.643-1.274c16.449-41.679,21.328-100.961-24.396-126.12c-20.174-11.1-45.726-10.738-66.763-2.409
				c-19.567,7.747-33.044,24.107-41.831,42.713c-12.202,25.839-15.977,54.894-21.112,82.715
				C1544.664,1012.162,1553.354,1010.631,1553.832,1008.042L1553.832,1008.042z"/>
		</g>
	</g>
	<g>
		<g>
			<path fill="#996666" d="M1581.81,904.665c10.818-2.884,20.937,7.503,27.504,14.704c6.351,6.963,11.524,14.841,15.98,23.124
				c9.422,17.511,15.255,36.904,18.878,56.387c7.073,38.034,6.083,81.445-12.346,116.315c-1.088,2.059,7.32,1.27,8.65-1.248
				c19.692-37.262,19.536-84.027,11.01-124.338c-4.302-20.336-11.461-40.367-22.484-58.057
				c-10.164-16.312-26.694-36.377-48.198-30.643C1575.64,902.285,1576.648,906.041,1581.81,904.665L1581.81,904.665z"/>
		</g>
	</g>
	<g>
		<g>
			<path fill="#996666" d="M1577.285,1020.576c1.74-1.901,1.463-0.268-1.932-0.232c0.973-0.01,2.021,0.65,2.845,1.094
				c2.165,1.167,3.997,2.975,5.701,4.715c3.831,3.911,6.93,8.581,9.785,13.229c3.978,6.477,5.874,12.988,7.417,20.398
				c2.037,9.786,3.266,19.868,2.942,29.874c-0.147,4.569-0.767,9.152-2.375,13.449c-0.594,1.584-1.431,3.053-2.432,4.41
				c-0.507,0.687-1.208,1.32-1.909,1.802c-0.558,0.383,1.25,0.038-0.476,0.018c0.484,0.319,0.97,0.638,1.454,0.956
				c1.842-2.22,3.863-4.21,6.837-4.129c3.806,0.103,7.527,1.803,10.801,3.602c8.574,4.712,15.634,12.276,21.409,20.046
				c5.62,7.561,10.353,16.153,12.73,25.313c1.498,5.773,2.315,14.469-3.737,17.995c-1.445,0.843-1.126,1.781,0.489,1.825
				c2.087,0.056,4.353-0.602,6.147-1.647c7.493-4.366,7.628-12.901,5.794-20.503c-2.677-11.088-9.248-21.295-16.408-30.001
				c-6.846-8.323-15.616-16.286-26.2-19.282c-9.46-2.678-20.225,0.864-26.429,8.343c-0.632,0.762,1.211,0.953,1.454,0.956
				c28.372,0.328,22.263-37.241,18.601-55.354c-0.898-4.443-1.954-8.904-3.476-13.182c-1.896-5.327-5.874-10.528-9.188-15.023
				c-3.336-4.526-7.418-9.649-12.827-11.707c-4.793-1.822-11.458,0.013-14.875,3.745c-1.286,1.404,1.135,1.428,2.032,1.348
				C1573.219,1022.475,1576.018,1021.961,1577.285,1020.576L1577.285,1020.576z"/>
		</g>
	</g>
	<g>
		<path fill="#FBCBCC" d="M1530.938,1580.747H533.776c0,0-77.38-853.114,0-1069.908c83.374-233.585,836.837-182.341,992.018,11.133
			C1691.409,728.457,1530.938,1580.747,1530.938,1580.747z"/>
		<g>
			<path d="M1531.528,1580.022c-18.438,0-36.874,0-55.312,0c-47.542,0-95.084,0-142.626,0c-64.993,0-129.987,0-194.98,0
				c-70.791,0-141.583,0-212.374,0c-64.935,0-129.871,0-194.806,0c-47.426,0-94.851,0-142.277,0c-13.505,0-27.01,0-40.515,0
				c-3.563,0-7.126,0-10.689,0c-0.904,0-1.809,0-2.714,0c-1.531,0-0.051-0.107-0.012,0.329c-1.972-21.755-3.73-43.531-5.462-65.308
				c-4.386-55.158-8.314-110.354-11.84-165.573c-4.777-74.809-8.784-149.669-11.787-224.57
				c-3.236-80.721-5.319-161.506-5.301-242.296c0.017-73.208,1.541-146.565,7.69-219.542c2.466-29.268,5.731-58.508,10.715-87.463
				c3.851-22.373,8.619-44.873,16.436-66.236c17.522-47.886,62.18-79.336,106.774-99.835
				c60.425-27.776,127.52-40.388,193.262-47.378c77.58-8.248,156.138-7.679,233.817-1.091
				c76.673,6.503,153.143,19.103,227.301,39.806c61.205,17.086,122.939,39.632,175.857,75.484
				c20.233,13.708,39.256,29.789,54.177,49.259c14.943,19.5,25.527,42.126,33.908,65.107
				c21.721,59.561,29.792,123.983,34.446,186.876c5.667,76.581,4.926,153.599,1.532,230.266
				c-3.473,78.444-10.086,156.741-18.568,234.795c-7.168,65.955-15.753,131.757-25.521,197.376
				c-6.025,40.472-12.485,80.884-19.595,121.18c-1.163,6.588-2.331,13.176-3.568,19.751c-0.179,0.95,2.718,0.442,2.881-0.424
				c3.899-20.715,7.389-41.513,10.826-62.308c8.817-53.33,16.735-106.811,23.861-160.393
				c9.668-72.695,17.817-145.604,23.972-218.682c6.615-78.544,10.949-157.35,11.163-236.186
				c0.196-72.141-2.762-144.786-14.422-216.078c-8.709-53.247-21.979-109.502-52.735-154.768
				c-29.542-43.479-78.267-71.598-125.063-92.952c-63.88-29.148-132.615-47.548-201.404-60.745
				c-76.881-14.748-155.212-22.441-233.473-23.604c-73.977-1.1-148.62,3.62-221.196,18.521
				c-57.188,11.742-116.06,29.88-163.714,64.725c-19.022,13.909-35.981,31.008-47.862,51.472
				c-10.909,18.79-16.443,40.302-21.083,61.364c-12.944,58.758-17.056,119.577-19.973,179.531
				c-3.725,76.555-3.905,153.272-2.74,229.894c1.222,80.411,4.156,160.792,8.076,241.115c3.421,70.102,7.642,140.164,12.504,210.181
				c3.195,46.016,6.665,92.013,10.499,137.979c0.877,10.513,1.76,21.025,2.713,31.532c0.029,0.325,0.657,0.336,0.859,0.336
				c18.437,0,36.874,0,55.312,0c47.542,0,95.084,0,142.626,0c64.994,0,129.987,0,194.98,0c70.791,0,141.582,0,212.374,0
				c64.935,0,129.87,0,194.805,0c47.426,0,94.852,0,142.277,0c18.263,0,36.525,0,54.788,0
				C1531.304,1581.472,1533.478,1580.022,1531.528,1580.022z"/>
		</g>
	</g>
</g>
<g id="NOSE">
	<g>
		<path fill="#F69799" d="M1122.563,1160.249c31.156-2.621,62.316,40.64,46.992,79.312c-5.108,13.765-19.921,35.396-32.691,37.362
			l-10.725-9.177c11.746-9.176,17.876-43.261-1.022-43.261c-25.542,0-48.018,33.429-56.189,61.613h-44.387
			c-8.173-28.185-30.647-61.613-56.188-61.613c-18.899,0-12.769,34.085-1.021,43.261l-10.727,9.177
			c-12.77-1.966-27.583-23.598-32.691-37.362c-15.324-38.672,15.835-81.933,46.994-79.312"/>
		<g>
			<g>
				<path fill="#996666" d="M1122.563,1160.249c5.096,0.905,8.867,2.525,12.598,4.371c3.718,1.881,7.423,4.075,11.836,7.435
					c1.305,0.943,3.192,2.577,5.361,4.68c0.52,0.552,1.061,1.127,1.621,1.722c0.281,0.297,0.569,0.596,0.834,0.927l0.448,0.532
					c0.641,0.763,1.305,1.513,1.894,2.335c4.924,6.396,8.802,14.197,10.854,22.65c2.062,8.439,2.257,17.538,0.136,26.12
					c-0.262,1.071-0.595,2.125-0.885,3.189c-0.302,1.062-0.735,2.104-1.093,3.158c-0.757,2.135-1.621,4.153-2.604,6.175
					c-1.96,4.032-4.263,7.93-6.773,11.586c-2.517,3.652-5.255,7.082-8.203,10.068c-2.935,2.966-6.152,5.534-9.348,6.938
					c-0.396,0.191-0.79,0.302-1.181,0.463l-0.161,0.05c0.003-0.002,0.007-0.002,0.009,0.001l0.004,0.004
					c-0.019-0.016,0.087,0.075-0.2-0.171c-1.59-1.36-3.156-2.7-4.697-4.019l-1.121-0.959l0.007,0.006
					c0.003,0.004,0.012,0.008,0.011,0.012c-0.002,0.001-0.016,0.014-0.007,0.006l0.021-0.022c0.177-0.216,0.37-0.426,0.53-0.646
					c0.324-0.438,0.646-0.875,0.968-1.31c2.063-3.023,3.6-6.176,4.758-9.389c1.16-3.213,2.01-6.473,2.479-9.789
					c0.462-3.315,0.646-6.671,0.207-10.094c-0.42-3.385-1.418-6.961-3.794-10.104c-1.161-1.571-2.782-2.898-4.528-3.847
					c-1.764-0.996-3.676-1.405-5.486-1.65c-1.878-0.17-3.394-0.07-4.969,0.038c-0.778,0.095-1.555,0.188-2.328,0.282
					c-0.761,0.151-1.518,0.302-2.272,0.451c-5.997,1.392-11.246,4.125-15.733,7.295c-4.506,3.181-8.323,6.802-11.677,10.511
					c-3.366,3.705-6.236,7.536-8.785,11.322c-5.083,7.589-8.838,15.038-11.709,21.951c-0.726,1.726-1.375,3.429-1.98,5.092
					c-0.294,0.835-0.608,1.647-0.87,2.468c-0.236,0.714-0.47,1.417-0.699,2.109c0-0.004,0.002-0.005,0.005-0.004
					c-1.248,0-2.452,0.001-3.612,0.001c-5.6,0.001-10.344,0.002-14.18,0.003c-7.673,0.001-11.715,0.002-11.715,0.002
					s-3.164-0.001-9.099-0.002l0,0.001c-0.001-0.003,0.002,0.007-0.002-0.007c-0.09-0.271-0.181-0.545-0.273-0.823
					c-0.363-1.114-0.756-2.282-1.202-3.491c-0.869-2.429-1.906-5.043-3.128-7.823c-2.433-5.563-5.631-11.79-9.915-18.37
					c-4.311-6.546-9.718-13.515-17.129-19.812c-1.886-1.535-3.848-3.074-6.026-4.44c-1.057-0.723-2.217-1.335-3.35-2
					c-1.188-0.588-2.356-1.229-3.624-1.735c-1.232-0.566-2.551-0.997-3.864-1.459c-1.351-0.378-2.706-0.781-4.126-1.024
					l-1.059-0.209l-1.081-0.134c-0.724-0.073-1.443-0.209-2.182-0.216c-0.741-0.028-1.463-0.07-2.229-0.079
					c-0.839,0.06-1.66,0.043-2.521,0.201c-0.861,0.149-1.721,0.295-2.587,0.618c-0.872,0.244-1.706,0.681-2.538,1.105
					c-1.608,0.955-3.097,2.203-4.196,3.678c-1.085,1.461-1.968,3.049-2.515,4.655c-0.337,0.805-0.499,1.607-0.746,2.42
					c-0.152,0.802-0.365,1.619-0.453,2.42c-0.874,6.453,0.106,12.733,2.042,18.863c0.986,3.065,2.31,6.079,4.038,9.011
					c0.434,0.732,0.912,1.453,1.408,2.17l0.786,1.063c0.126,0.179,0.273,0.351,0.419,0.523l0.184,0.217
					c0.026,0.022-0.014-0.004,0.004-0.003c1.081-0.925-2.641,2.259-4.798,4.104c-1.755,1.504-1.068,0.907-1.196,1.029l-0.14-0.04
					l-0.862-0.324c-0.596-0.255-1.199-0.528-1.799-0.863c-2.792-1.522-5.577-3.855-8.201-6.542
					c-2.633-2.696-5.117-5.798-7.454-9.117c-2.334-3.324-4.504-6.901-6.424-10.64c-0.957-1.869-1.848-3.781-2.627-5.715
					c-0.397-1.001-0.751-1.995-1.104-2.991l-0.538-1.497c-0.171-0.501-0.292-1.009-0.442-1.514
					c-2.392-8.061-2.804-16.859-1.204-25.313c1.565-8.458,5.02-16.561,9.789-23.445l0.438-0.65l0.105-0.15l0.203-0.269l0.404-0.533
					c0.268-0.354,0.533-0.706,0.796-1.055c0.508-0.713,1.091-1.34,1.62-1.985c0.528-0.646,1.062-1.258,1.611-1.817
					c0.543-0.564,1.043-1.138,1.565-1.641c1.057-0.991,1.99-1.935,2.893-2.653c0.44-0.374,0.848-0.721,1.221-1.038
					c0.379-0.31,0.741-0.563,1.051-0.801c4.414-3.36,8.119-5.555,11.837-7.435c3.731-1.846,7.501-3.466,12.597-4.371
					c-4.903-1.597-9.603-1.89-14.343-1.08c-4.748,0.827-9.626,2.802-14.791,6.659c-0.363,0.273-0.786,0.568-1.227,0.923
					c-0.434,0.362-0.908,0.76-1.419,1.188c-1.046,0.833-2.125,1.901-3.337,3.041c-0.599,0.575-1.174,1.223-1.795,1.868
					c-0.627,0.641-1.236,1.336-1.84,2.067c-0.604,0.73-1.263,1.449-1.843,2.253c-0.299,0.395-0.6,0.793-0.904,1.194l-0.457,0.605
					l-0.229,0.304l-0.12,0.17l-0.497,0.735c-5.392,7.786-9.277,16.888-11.056,26.488c-1.815,9.586-1.359,19.686,1.389,28.945
					c0.171,0.577,0.317,1.166,0.51,1.73l0.6,1.68c0.397,1.121,0.797,2.236,1.225,3.311c0.891,2.209,1.878,4.322,2.927,6.373
					c2.105,4.095,4.445,7.947,6.985,11.566c2.546,3.614,5.262,7.014,8.261,10.087c3.007,3.061,6.248,5.856,10.079,7.96
					c0.824,0.456,1.698,0.862,2.593,1.238c0.474,0.176,0.893,0.345,1.413,0.519l2.188,0.567l2.352,0.472
					c0.64-0.413,1.238-0.991,1.857-1.478c1.502-1.234,1.77-1.482,2.442-2.054c3.227-2.761,6.418-5.491,9.572-8.19l1.773-1.517
					c0.276-0.116-0.059-0.256-0.174-0.387l-0.462-0.397l-0.924-0.795l-1.893-1.63c-0.309-0.274-0.648-0.542-0.933-0.82l-0.783-0.849
					l-0.391-0.424l-0.199-0.227c-0.103-0.12-0.208-0.238-0.301-0.375l-0.581-0.785c-0.372-0.541-0.741-1.093-1.082-1.669
					c-1.361-2.311-2.484-4.827-3.311-7.411c-1.655-5.144-2.409-10.595-1.741-15.305c0.307-2.35,1.09-4.422,2.164-5.844
					c0.531-0.727,1.181-1.212,1.858-1.647c0.375-0.163,0.713-0.386,1.138-0.483c0.382-0.164,0.837-0.22,1.277-0.305
					c0.436-0.097,0.945-0.061,1.411-0.115c0.564,0.021,1.126,0.041,1.685,0.063c0.565-0.005,1.123,0.116,1.682,0.167l0.835,0.099
					l0.826,0.168c1.105,0.182,2.18,0.512,3.252,0.803c1.055,0.381,2.112,0.712,3.124,1.183c1.032,0.404,2.008,0.951,2.996,1.432
					c0.954,0.568,1.927,1.069,2.835,1.694c1.858,1.159,3.574,2.51,5.235,3.857c6.56,5.563,11.604,11.994,15.614,18.096
					c3.998,6.136,7.015,11.998,9.301,17.225c1.149,2.611,2.124,5.065,2.938,7.338c0.419,1.133,0.786,2.223,1.125,3.263
					c0.086,0.259,0.171,0.516,0.255,0.769c0.161,0.525,0.319,1.044,0.476,1.556c0.313,1.028,0.618,2.028,0.914,2.999
					c0.074,0.243,0.147,0.484,0.22,0.724c0.024,0.052,0.023,0.138,0.067,0.161h0.187h0.371c0.493,0,0.979,0,1.457,0
					c0.956,0,1.882,0,2.778,0c1.068,0,2.065,0,2.989,0c1.548-0.001,2.851-0.001,3.899-0.001c2.098-0.001,3.18-0.001,3.18-0.001
					s4.042,0.001,11.715,0.002c3.836,0.001,8.58,0.002,14.18,0.003c1.64,0,3.343,0.001,5.107,0.001c0.753,0,1.514,0,2.28,0h1.155
					h0.581c0.091-0.009,0.209,0.02,0.277-0.02l0.085-0.279c0.454-1.492,0.916-3.01,1.386-4.552l0.179-0.583l0.093-0.278l0.187-0.56
					c0.124-0.375,0.249-0.753,0.376-1.134c0.243-0.765,0.54-1.526,0.814-2.308c0.567-1.557,1.177-3.153,1.859-4.773
					c2.694-6.487,6.242-13.512,10.979-20.578c2.373-3.523,5.034-7.069,8.1-10.438c3.051-3.376,6.484-6.613,10.38-9.357
					c3.881-2.747,8.256-4.968,12.959-6.057c0.589-0.117,1.18-0.235,1.773-0.354c0.598-0.072,1.196-0.144,1.799-0.216
					c1.197-0.087,2.488-0.14,3.427-0.05c1.995,0.237,3.479,0.995,4.64,2.489c1.158,1.507,1.932,3.772,2.222,6.287
					c0.332,2.508,0.199,5.253-0.187,7.999c-0.386,2.754-1.113,5.533-2.086,8.228c-0.966,2.698-2.265,5.297-3.826,7.591
					c-0.237,0.32-0.476,0.643-0.716,0.967c-0.117,0.165-0.252,0.302-0.377,0.456l-0.962,1.044c-0.296,0.357-0.711,0.693-1.105,1.033
					l-1.188,1.024c-0.775,0.667-1.554,1.337-2.337,2.011c-0.093,0.083-0.254,0.169-0.086,0.242l0.274,0.234l0.561,0.479l1.126,0.964
					c0.752,0.644,1.508,1.29,2.268,1.939c1.146,0.981,2.302,1.971,3.468,2.969c1.541,1.318,3.107,2.659,4.697,4.02
					c0.733,0.609,1.471,1.22,2.209,1.833l0.607,0.502c0.212,0.13,0.376,0.45,0.659,0.298l1.55-0.311
					c0.533-0.095,1.006-0.224,1.486-0.35l1.43-0.374c0.603-0.231,1.238-0.436,1.814-0.705c4.696-2.095,8.422-5.235,11.808-8.618
					c3.367-3.412,6.354-7.168,9.093-11.139c2.73-3.978,5.211-8.17,7.374-12.616c1.079-2.216,2.077-4.552,2.902-6.879
					c0.407-1.187,0.878-2.34,1.229-3.557c0.339-1.22,0.715-2.432,1.016-3.662c2.435-9.862,2.197-20.273-0.14-29.822
					c-2.33-9.573-6.685-18.33-12.266-25.583c-0.671-0.927-1.422-1.785-2.151-2.65l-0.512-0.604
					c-0.303-0.373-0.631-0.716-0.952-1.055c-0.643-0.677-1.263-1.332-1.857-1.96c-2.489-2.41-4.682-4.276-6.21-5.365
					c-2.552-1.967-5.126-3.339-7.548-4.471c-2.484-1.034-4.855-1.797-7.241-2.188
					C1132.166,1158.359,1127.467,1158.652,1122.563,1160.249z"/>
			</g>
		</g>
	</g>
	<radialGradient id="SVGID_1_" cx="1047.8169" cy="1152.2266" r="83.7004" gradientUnits="userSpaceOnUse">
		<stop  offset="0" style="stop-color:#FBCBCC"/>
		<stop  offset="1" style="stop-color:#F69799"/>
	</radialGradient>
	<circle fill="url(#SVGID_1_)" cx="1047.817" cy="1152.226" r="83.701"/>
</g>
<g id="eyes">
	<g id="Eye_2_">
		<g id="pupil_3_">
			
				<linearGradient id="SVGID_2_" gradientUnits="userSpaceOnUse" x1="785.7544" y1="1014.271" x2="835.7122" y2="918.3071" gradientTransform="matrix(0.999 0.0436 -0.0436 0.999 44.6061 -33.378)">
				<stop  offset="0.0607" style="stop-color:#33C6F4"/>
				<stop  offset="0.1582" style="stop-color:#35C2F1"/>
				<stop  offset="0.2466" style="stop-color:#36BAEC"/>
				<stop  offset="0.3316" style="stop-color:#35AEE4"/>
				<stop  offset="0.4144" style="stop-color:#359ED8"/>
				<stop  offset="0.4957" style="stop-color:#368ACA"/>
				<stop  offset="0.5758" style="stop-color:#3773BA"/>
				<stop  offset="0.655" style="stop-color:#365AA9"/>
				<stop  offset="0.7316" style="stop-color:#363B97"/>
				<stop  offset="0.7388" style="stop-color:#363795"/>
			</linearGradient>
			<path fill="url(#SVGID_2_)" d="M867.018,969.817c-1.232,29.83-26.683,52.881-56.847,51.488
				c-30.166-1.393-53.621-26.703-52.391-56.533c1.229-29.833,26.682-52.886,56.845-51.493
				C844.79,914.671,868.246,939.985,867.018,969.817z"/>
			<g>
				<path fill="#016699" d="M865.549,969.924c-1.347,24.877-19.532,45.584-44.201,49.719c-24.47,4.101-48.701-10.256-58.211-32.809
					c-9.495-22.516-1.229-48.764,18.257-62.919c20.711-15.045,49.925-11.639,68.051,5.733
					C860.338,940.088,865.974,954.95,865.549,969.924c-0.043,1.532,2.9,1.111,2.938-0.214c0.616-21.709-11.204-41.491-30.466-51.464
					c-18.63-9.646-41.474-7.469-58.555,4.325c-17.6,12.151-25.928,34.027-22.24,54.852c3.742,21.129,20.727,37.875,41.148,43.262
					c33.821,8.922,68.23-16.209,70.112-50.975C868.569,968.185,865.621,968.597,865.549,969.924z"/>
			</g>
		</g>
		<g id="pupil_2_" display="none">
			<path display="inline" d="M823.159,968.747c-0.682,15.658-14.822,27.763-31.583,27.031
				c-16.761-0.733-29.792-14.024-29.109-29.682c0.682-15.661,14.827-27.767,31.585-27.035
				C810.81,939.792,823.843,953.083,823.159,968.747z"/>
			<g display="inline">
				<path d="M821.694,968.87c-1.104,16.137-15.279,26.833-31.033,25.803c-14.933-0.977-27.011-13.78-26.73-28.7
					c0.304-16.191,15.901-26.795,31.035-25.808C809.902,941.141,821.977,953.949,821.694,968.87
					c-0.028,1.469,2.905,0.996,2.929-0.246c0.334-17.636-14.491-30.232-31.488-30.606c-16.206-0.357-31.012,11.805-32.132,28.201
					c-1.204,17.614,15.154,30.242,31.491,30.602c16.205,0.357,31.009-11.801,32.13-28.197
					C824.723,967.169,821.78,967.622,821.694,968.87z"/>
			</g>
		</g>
		<g id="shine_3_">
			<path fill="#FFFFFF" d="M784.292,968.801c-0.765,4.795-4.46,8.125-8.248,7.44c-3.786-0.691-6.237-5.136-5.466-9.934
				c0.767-4.797,4.462-8.125,8.248-7.439C782.614,959.559,785.064,964.006,784.292,968.801z"/>
		</g>
		<g id="shine_1_">
			<path fill="#FFFFFF" d="M799.172,946.58c-5.109,6.661-13.097,9.158-17.842,5.586c-4.741-3.572-4.439-11.869,0.673-18.528
				c5.112-6.657,13.097-9.158,17.84-5.583C804.585,931.625,804.285,939.923,799.172,946.58z"/>
		</g>
		<g>
			<path fill="#983620" d="M977.131,856.152c-51.19,16.654-181.861-53.26-206.694-28.848
				c-26.696,26.245-80.489,45.502-116.061,45.502c0,0,31.578,32.178,46.334,29.575c17.217-7.809,92.011-27.102,111.688-24.499
				c0,0,99.763,39.797,147.622,21.486L977.131,856.152z"/>
			<g>
				<path fill="#653614" d="M976.395,853.406c-14.101,4.45-29.887,2.108-44.131-0.39c-18.995-3.332-37.622-8.762-56.119-14.132
					c-18.007-5.228-35.951-10.769-54.215-15.046c-13.019-3.049-27.368-6.322-40.785-4.136c-6.563,1.07-11.336,3.712-16.121,8.223
					c-9.633,9.082-21.365,15.993-33.167,21.833c-23.581,11.67-50.557,19.932-77.034,20.09c-1.653,0.01-6.69,2.526-4.442,4.81
					c9.45,9.603,20.019,18.842,31.695,25.61c5.841,3.385,14.22,7.254,20.958,4.246c5.896-2.632,12.203-4.432,18.372-6.286
					c18.877-5.674,38.115-10.369,57.475-14.069c8.103-1.549,16.299-2.874,24.539-3.417c4.079-0.269,5.542-0.421,8.563,0.733
					c29.833,11.403,61.271,20.319,93.003,24.228c18.004,2.218,37.529,2.873,54.878-3.256c5.208-1.84,5.785-6.497,7.673-11.266
					c2.91-7.35,5.82-14.7,8.73-22.049c1.663-4.2,3.326-8.4,4.989-12.6c1.776-4.486-6.942-4.061-8.249-0.761
					c-5.704,14.406-11.408,28.812-17.111,43.217c0.753-0.652,1.506-1.305,2.26-1.958c-17.186,6.404-37.143,4.577-54.905,2.121
					c-19.297-2.669-38.286-7.536-56.896-13.224c-10.339-3.159-20.613-6.614-30.691-10.531c-3.86-1.5-8.949-0.753-12.973-0.455
					c-8.491,0.629-16.924,2.153-25.282,3.727c-24.988,4.704-50.348,10.733-74.216,19.607c-0.793,0.295-1.58,0.605-2.365,0.921
					c-0.783,0.314-2.802,0.666-0.333,0.32c-2.121,0.296-4.416-0.669-6.349-1.404c-5.85-2.223-11.177-6.173-16.138-9.904
					c-6.946-5.225-13.538-11.058-19.636-17.255c-1.481,1.604-2.961,3.207-4.442,4.81c23.254-0.139,46.455-6.594,67.9-15.19
					c11.324-4.54,22.237-10.127,32.53-16.675c4.609-2.933,9.015-6.174,13.22-9.658c2.851-2.363,5.334-5.324,8.333-7.178
					c8.029-4.963,24.03-1.215,33.246,0.632c17.839,3.576,35.313,8.949,52.757,14.056c21.171,6.198,42.374,12.433,64.058,16.599
					c16.689,3.207,35.335,5.774,51.895,0.548C983.081,857.252,981.686,851.737,976.395,853.406z"/>
			</g>
		</g>
		<linearGradient id="SVGID_3_" gradientUnits="userSpaceOnUse" x1="757.7329" y1="1171.291" x2="757.7329" y2="1068.5234">
			<stop  offset="0" style="stop-color:#FBCBCC"/>
			<stop  offset="1" style="stop-color:#F69799"/>
		</linearGradient>
		<path fill="url(#SVGID_3_)" d="M882.67,1102.749c0,37.857-55.936,68.542-124.937,68.542c-69.001,0-124.938-30.685-124.938-68.542
			c0-37.854,55.936-34.124,124.938-34.124C826.734,1068.625,882.67,1068.625,882.67,1102.749z"/>
	</g>
	<g id="Eye_1_">
		<g id="pupil_5_">
			
				<linearGradient id="SVGID_4_" gradientUnits="userSpaceOnUse" x1="717.4741" y1="1017.2515" x2="767.4319" y2="921.2875" gradientTransform="matrix(0.999 0.0436 -0.0436 0.999 586.1965 -33.378)">
				<stop  offset="0.0607" style="stop-color:#33C6F4"/>
				<stop  offset="0.1582" style="stop-color:#35C2F1"/>
				<stop  offset="0.2466" style="stop-color:#36BAEC"/>
				<stop  offset="0.3316" style="stop-color:#35AEE4"/>
				<stop  offset="0.4144" style="stop-color:#359ED8"/>
				<stop  offset="0.4957" style="stop-color:#368ACA"/>
				<stop  offset="0.5758" style="stop-color:#3773BA"/>
				<stop  offset="0.655" style="stop-color:#365AA9"/>
				<stop  offset="0.7316" style="stop-color:#363B97"/>
				<stop  offset="0.7388" style="stop-color:#363795"/>
			</linearGradient>
			<path fill="url(#SVGID_4_)" d="M1340.266,969.817c-1.232,29.83-26.683,52.881-56.848,51.488
				c-30.166-1.393-53.62-26.703-52.39-56.533c1.229-29.833,26.681-52.886,56.845-51.493
				C1318.037,914.671,1341.494,939.985,1340.266,969.817z"/>
			<g>
				<path fill="#016699" d="M1338.797,969.924c-1.347,24.877-19.532,45.584-44.201,49.719c-24.47,4.101-48.7-10.255-58.211-32.809
					c-9.494-22.515-1.229-48.764,18.257-62.919c20.711-15.045,49.925-11.639,68.052,5.733
					C1333.586,940.088,1339.222,954.95,1338.797,969.924c-0.043,1.532,2.9,1.111,2.938-0.214
					c0.616-21.709-11.204-41.491-30.466-51.464c-18.63-9.646-41.474-7.469-58.555,4.325c-17.601,12.151-25.927,34.027-22.239,54.852
					c3.742,21.129,20.727,37.875,41.146,43.262c33.821,8.922,68.23-16.209,70.113-50.975
					C1341.817,968.185,1338.869,968.597,1338.797,969.924z"/>
			</g>
		</g>
		<g id="pupil_1_" display="none">
			<path display="inline" d="M823.159,968.747c-0.682,15.658-14.822,27.763-31.583,27.031
				c-16.761-0.733-29.792-14.024-29.109-29.682c0.682-15.661,14.827-27.767,31.585-27.035
				C810.81,939.792,823.843,953.083,823.159,968.747z"/>
			<g display="inline">
				<path d="M821.694,968.87c-1.104,16.137-15.279,26.833-31.033,25.803c-14.933-0.977-27.011-13.78-26.73-28.7
					c0.304-16.191,15.901-26.795,31.035-25.808C809.902,941.141,821.977,953.949,821.694,968.87
					c-0.028,1.469,2.905,0.996,2.929-0.246c0.334-17.636-14.491-30.232-31.488-30.606c-16.206-0.357-31.012,11.805-32.132,28.201
					c-1.204,17.614,15.154,30.242,31.491,30.602c16.205,0.357,31.009-11.801,32.13-28.197
					C824.723,967.169,821.78,967.622,821.694,968.87z"/>
			</g>
		</g>
		<g id="shine_5_">
			<path fill="#FFFFFF" d="M1257.541,968.801c-0.766,4.795-4.46,8.125-8.249,7.44c-3.785-0.691-6.235-5.136-5.467-9.934
				c0.769-4.797,4.464-8.125,8.249-7.439C1255.862,959.559,1258.313,964.006,1257.541,968.801z"/>
		</g>
		<g id="shine_2_">
			<path fill="#FFFFFF" d="M1272.42,946.58c-5.109,6.661-13.098,9.158-17.842,5.586c-4.742-3.572-4.438-11.869,0.672-18.528
				c5.111-6.657,13.098-9.158,17.841-5.583C1277.832,931.625,1277.534,939.923,1272.42,946.58z"/>
		</g>
		<g>
			<path fill="#983620" d="M1120.917,856.152c51.189,16.654,181.859-53.26,206.693-28.848
				c26.696,26.245,80.488,45.502,116.062,45.502c0,0-31.579,32.178-46.335,29.575c-17.217-7.809-92.012-27.102-111.688-24.499
				c0,0-99.763,39.797-147.623,21.486L1120.917,856.152z"/>
			<g>
				<path fill="#653614" d="M1118.363,858.917c14.214,4.486,29.89,2.987,44.361,0.718c18.831-2.953,37.288-8.02,55.59-13.255
					c18.349-5.249,36.585-10.928,55.098-15.583c13.115-3.297,27.545-7.109,41.175-5.364c6.804,0.871,10.298,5.142,15.329,9.415
					c10.482,8.904,22.672,15.77,35.086,21.575c23.794,11.127,50.668,19.185,77.111,19.342c-0.679-1.359-1.356-2.718-2.035-4.076
					c-9.397,9.549-20.063,19.129-32.026,25.288c-2.552,1.314-5.55,2.749-8.494,2.539c-2.182-0.155-5.346-2.169-7.467-2.91
					c-7.79-2.723-15.742-4.998-23.695-7.187c-19.029-5.239-38.353-9.787-57.856-12.863c-10.113-1.595-20.5-3.343-30.241,0.328
					c-19.63,7.397-40.035,13.459-60.567,18.054c-24.926,5.578-54.455,10.869-79.15,1.666c0.598,0.534,1.195,1.067,1.793,1.601
					c-5.703-14.406-11.406-28.812-17.109-43.217c-1.453-3.671-10.076-1.165-8.693,2.329c4.572,11.55,9.145,23.1,13.718,34.649
					c1.718,4.341,2.321,9.173,6.981,10.82c8.169,2.886,17.014,3.924,25.626,4.272c36.811,1.488,74.482-9.239,108.979-21.125
					c4.524-1.559,9.029-3.181,13.502-4.885c0.699-0.266,1.396-0.535,2.092-0.811c-3.217,1.274-0.824,0.44,0.577,0.384
					c1.524-0.061,3.057,0.035,4.578,0.122c18.335,1.048,36.679,5.618,54.446,9.985c15.668,3.851,31.863,7.714,46.771,14.004
					c6.535,2.757,14.967-1.359,20.613-4.517c7.84-4.384,14.914-10.034,21.666-15.922c3.822-3.333,7.587-6.754,11.145-10.37
					c1.752-1.78,0.232-4.063-2.035-4.076c-23.641-0.141-47.171-6.938-68.785-16.125c-11.344-4.822-22.255-10.8-32.325-17.912
					c-4.432-3.129-8.619-6.585-12.514-10.36c-1.734-1.681-3.655-2.906-5.868-3.858c-11.144-4.793-25.009-2.206-36.459-0.123
					c-17.576,3.197-34.782,8.439-51.907,13.444c-20.956,6.125-41.905,12.448-63.302,16.882c-16.066,3.33-34.543,6.659-50.6,1.591
					C1120.029,852.301,1113.205,857.289,1118.363,858.917z"/>
			</g>
		</g>
		<linearGradient id="SVGID_5_" gradientUnits="userSpaceOnUse" x1="1340.3145" y1="1171.291" x2="1340.3145" y2="1068.5234">
			<stop  offset="0" style="stop-color:#FBCBCC"/>
			<stop  offset="1" style="stop-color:#F69799"/>
		</linearGradient>
		<path fill="url(#SVGID_5_)" d="M1215.377,1102.749c0,37.857,55.937,68.542,124.938,68.542s124.938-30.685,124.938-68.542
			c0-37.854-55.937-34.124-124.938-34.124S1215.377,1068.625,1215.377,1102.749z"/>
	</g>
</g>
<g id="stache">
	<g id="Layer_4">
		<g>
			<path fill="#983620" d="M1244.117,1329.872c19.088,50.322,90.232,74.616,142.289,69.41
				c67.675-6.941,102.38-98.908,123.203-152.701c28.879-74.419,51.746-152.056,62.605-231.268
				c5.465-39.871,4.635-188.661-10.115-189.528c7.016-13.838,26.463-17.302,40.057-7.181c7.029,3.011,56.25,225.216,8.629,225.216
				c38.511,30.972,48.438,93.06,40.228,135.47c-4.499,23.23-23.499,45.137-23.943,66.122c-0.44,20.845,7.057,42.222,6.306,63.751
				c-0.673,19.272-3.642,38.676-9.24,57.149c-17.353,57.263-36.44,107.585-34.705,168.318c1.735,67.675,6.941,131.878-8.676,199.553
				c-13.882,62.469-168.598,262.828-192.612,233.101c-21.421-26.522-9.544-42.224-32.39-42.224
				c-21.402,0-25.53,56.558-48.587,61.601c-27.764,6.073-28.631-54.66-50.321-54.66c-26.138,0-30.906,59.576-59.866,59.576
				c-32.068,0-11.174-48.297-45.672-48.297c-28.92,0-35.481,48.297-61.913,48.297c-31.234,0-9.832-43.092-42.658-46.562h0.24
				c-32.826,3.47-11.424,46.562-42.658,46.562c-26.431,0-32.993-48.297-61.913-48.297c-34.497,0-13.603,48.297-45.672,48.297
				c-28.961,0-33.73-59.576-59.866-59.576c-21.691,0-22.559,60.733-50.322,54.66c-23.056-5.043-27.185-61.601-48.587-61.601
				c-22.847,0-10.969,15.701-32.391,42.224c-24.013,29.728-178.73-170.632-192.612-233.101
				c-15.617-67.675-10.411-131.878-8.676-199.553c1.735-60.733-17.352-111.056-34.705-168.318
				c-5.598-18.474-8.567-37.877-9.24-57.149c-0.75-21.529,6.746-42.906,6.305-63.751c-0.444-20.985-19.443-42.892-23.942-66.122
				c-8.211-42.41,1.716-104.498,40.229-135.47c-47.623,0,1.6-222.205,8.628-225.216c13.593-10.122,33.041-6.657,40.055,7.181
				c-14.75,0.868-15.58,149.658-10.114,189.528c10.859,79.212,33.726,156.849,62.605,231.268
				c20.823,53.793,55.528,145.76,123.202,152.701c52.057,5.206,123.202-19.088,142.29-69.41"/>
			<g>
				<g>
					<path fill="#653614" d="M1244.117,1329.872c0.626,5.123,1.714,9.448,3.501,13.742c1.812,4.281,4.343,8.564,8.399,13.315
						c0.892,1.034,2.164,2.471,3.77,4.131c0.804,0.829,1.688,1.716,2.646,2.639c0.483,0.456,0.981,0.926,1.492,1.406
						c0.259,0.237,0.521,0.478,0.785,0.72l1.24,1.106c2.802,2.463,5.728,4.788,8.753,6.979c6.053,4.383,12.499,8.231,19.205,11.6
						c13.423,6.728,27.853,11.577,42.763,14.67c14.914,3.061,30.361,4.417,45.927,3.363c3.855-0.256,7.882-0.703,11.79-1.495
						c3.922-0.777,7.795-1.844,11.572-3.181c7.56-2.679,14.714-6.447,21.313-10.962c13.22-9.075,24.194-20.928,33.63-33.703
						c9.439-12.82,17.413-26.66,24.57-40.907c7.151-14.259,13.46-28.967,19.407-43.835c2.976-7.435,5.857-14.91,8.746-22.378
						c2.9-7.489,5.746-15.023,8.524-22.597c5.562-15.146,10.864-30.457,15.862-45.922c9.994-30.928,18.762-62.486,25.842-94.547
						c3.544-16.028,6.657-32.182,9.295-48.43c0.658-4.063,1.288-8.13,1.888-12.204l0.871-6.114c0.292-2.019,0.56-4.169,0.774-6.227
						c0.859-8.303,1.321-16.533,1.691-24.772c0.705-16.469,0.924-32.915,0.854-49.353c-0.086-16.437-0.471-32.861-1.33-49.269
						c-0.436-8.204-0.991-16.404-1.777-24.604c-0.813-8.206-1.757-16.391-3.508-24.657c-0.452-2.07-0.962-4.146-1.624-6.256
						c-0.333-1.056-0.705-2.12-1.161-3.209c-0.464-1.09-0.988-2.203-1.796-3.396l-0.323-0.452l-0.287-0.366
						c-0.062-0.07-0.015-0.017-0.027-0.032l0.01,0.005c0.005,0.002-0.005,0.012-0.007,0.017l-0.003,0.004l-0.008,0.01
						c0.009-0.011-0.044,0.06,0.05-0.066c0.255-0.333,0.522-0.655,0.797-0.973c0.556-0.629,1.154-1.223,1.79-1.776
						c5.098-4.476,12.636-6.112,19.494-4.719c0.572,0.114,1.14,0.247,1.561,0.361c0.419,0.117,0.683,0.191,0.689,0.193
						c2.435,0.717,4.759,1.802,6.845,3.183l0.771,0.53l0.378,0.274l0.024,0.017l0.012,0.009c0.967-1.208-2.147,2.715,2.17-2.706
						c-0.019,0.055-0.043,0.106-0.073,0.152c-0.057,0.08-0.15,0.246-0.248,0.34c-0.112,0.144-0.237,0.279-0.379,0.407
						c-0.153,0.161-0.317,0.31-0.49,0.446c-0.378,0.339-0.788,0.633-1.282,0.995c-0.043,0.012,0.004,0.03,0.005,0.046l0.132,0.232
						c0.105,0.196,0.227,0.445,0.345,0.708c0.481,1.075,0.941,2.332,1.365,3.563c1.692,4.992,3.012,9.916,4.115,14.087
						c1.096,4.188,1.943,7.69,2.524,10.118c0.572,2.431,0.851,3.614,0.87,3.699v0c3.561,15.389,6.62,30.909,9.256,46.212
						c2.627,15.306,4.813,30.409,6.429,45.022c1.607,14.61,2.66,28.742,2.823,42.038c0.077,6.646-0.071,13.083-0.552,19.221
						c-0.485,6.132-1.292,11.989-2.664,17.297c-1.362,5.263-3.378,10.118-6.226,13.1c-0.705,0.738-1.448,1.35-2.219,1.824
						l-0.291,0.171l-0.473,0.246c-0.593,0.268-1.186,0.504-1.879,0.66c-1.331,0.339-3.329,0.268-5.475,0.328
						c-2.262,0.041-4.505,0.081-6.73,0.121l-0.808,0.015c-0.115-0.013,0.01,0.042,0.023,0.066l0.112,0.091l0.226,0.183l0.732,0.595
						l1.094,0.887c1.964,1.602,3.896,3.177,5.793,4.725c1.938,1.555,3.644,3.066,5.31,4.611c0.416,0.399,0.828,0.796,1.236,1.188
						c0.373,0.371,0.742,0.739,1.108,1.104c1.445,1.475,2.791,2.934,4.031,4.375c2.486,2.877,4.574,5.65,6.342,8.19
						c3.527,5.093,5.781,9.239,7.157,11.845c1.358,2.617,1.854,3.701,1.499,2.957c6.281,12.847,10.376,26.729,12.726,40.807
						c2.326,14.089,2.938,28.438,1.713,42.51c-0.311,3.517-0.741,7.015-1.305,10.479c-0.566,3.52-1.224,6.771-2.237,10.048
						c-1.989,6.554-4.912,12.949-8.005,19.346c-3.094,6.407-6.415,12.822-9.227,19.65c-1.399,3.415-2.667,6.939-3.622,10.624
						c-0.949,3.667-1.58,7.566-1.613,11.461c-0.112,7.446,0.716,14.718,1.749,21.8c1.041,7.087,2.302,14.013,3.239,20.87
						c0.938,6.851,1.551,13.646,1.334,20.322c-0.234,6.869-0.766,13.73-1.597,20.522c-0.833,6.794-1.966,13.53-3.418,20.173
						c-0.728,3.321-1.528,6.62-2.415,9.891c-0.872,3.269-1.871,6.495-2.881,9.804c-4.082,13.16-8.143,26.249-12.18,39.265
						c-7.99,26.103-15.193,52.414-18.832,79.162c-1.824,13.357-2.788,26.78-2.734,40.127c0.036,6.708,0.292,13.22,0.472,19.774
						c0.214,6.536,0.427,13.053,0.639,19.548c0.868,25.959,1.653,51.535,0.979,76.689c-0.654,25.145-2.819,49.873-7.291,73.826
						c-0.563,2.992-1.148,5.975-1.776,8.942l-0.968,4.444l-0.503,2.225c-0.164,0.726-0.325,1.411-0.508,2.109
						c-1.464,5.584-3.613,11.141-5.97,16.581c-4.764,10.892-10.422,21.413-16.33,31.672c-11.886,20.506-24.9,40.004-38.273,58.746
						c-13.406,18.727-27.25,36.685-41.501,53.76c-7.129,8.533-14.367,16.841-21.758,24.851
						c-7.394,8.004-14.933,15.727-22.744,22.929c-3.908,3.595-7.887,7.058-11.972,10.281c-4.082,3.21-8.281,6.221-12.605,8.618
						c-2.156,1.187-4.355,2.217-6.49,2.885c-2.116,0.676-4.211,0.909-5.567,0.521c-0.685-0.187-1.193-0.474-1.675-0.937
						c-0.122-0.113-0.237-0.245-0.354-0.383l-0.568-0.709l-1.142-1.476c-1.498-1.982-2.896-4.02-4.177-6.113
						c-2.573-4.188-4.634-8.588-6.3-13.218c-0.846-2.318-1.591-4.693-2.429-7.186c-0.864-2.477-1.746-5.153-3.574-7.894
						c-0.915-1.354-2.129-2.673-3.551-3.694c-1.419-1.03-2.98-1.746-4.489-2.227c-3.037-0.946-5.88-1.135-8.598-1.184
						c-0.608-0.011-1.548-0.003-2.354,0.093c-0.831,0.091-1.658,0.251-2.46,0.474c-1.608,0.444-3.105,1.144-4.437,1.975
						c-2.671,1.679-4.696,3.808-6.42,5.964c-3.407,4.357-5.759,8.949-7.966,13.467c-2.18,4.529-4.123,9.034-6.106,13.423
						c-1.982,4.384-3.989,8.668-6.255,12.646c-2.26,3.955-4.809,7.668-7.828,10.31c-1.506,1.314-3.112,2.326-4.785,2.92
						c-0.417,0.153-0.84,0.277-1.268,0.376c-0.435,0.104-0.919,0.193-1.369,0.253c-0.914,0.127-1.807,0.156-2.672,0.088
						c-1.728-0.137-3.347-0.681-4.886-1.612c-1.538-0.928-2.981-2.24-4.301-3.77c-2.647-3.077-4.811-6.906-6.773-10.848
						c-1.964-3.961-3.732-8.096-5.556-12.25c-1.831-4.156-3.684-8.351-5.979-12.478c-1.157-2.06-2.424-4.106-3.959-6.08
						c-1.539-1.961-3.347-3.891-5.711-5.436c-2.33-1.554-5.337-2.57-8.279-2.572c-2.71-0.028-5.428,0.498-7.895,1.511
						c-2.467,1.006-4.645,2.434-6.537,4.017c-1.895,1.589-3.529,3.333-5.004,5.124c-2.94,3.593-5.291,7.362-7.473,11.099
						c-2.173,3.741-4.156,7.472-6.137,11.11c-1.979,3.637-3.95,7.188-6.056,10.536c-2.104,3.342-4.348,6.492-6.858,9.158
						c-2.506,2.66-5.293,4.799-8.3,5.947c-1.499,0.587-3.054,0.92-4.644,1.033c-0.4,0.026-0.794,0.039-1.204,0.039
						c-0.433-0.002-0.86-0.013-1.284-0.034c-0.846-0.044-1.671-0.133-2.466-0.27c-3.207-0.543-5.788-1.903-7.733-4.184
						c-1.97-2.271-3.336-5.421-4.415-8.801c-1.086-3.393-1.916-7.024-2.908-10.72c-1.001-3.692-2.132-7.501-4.036-11.217
						c-0.952-1.851-2.12-3.671-3.563-5.326c-1.438-1.656-3.166-3.125-5.063-4.266c-3.822-2.307-8.09-3.212-12.027-3.419
						c-1.947-0.108-4.002-0.079-6.027,0.206c-2.021,0.277-4.01,0.781-5.898,1.48c-3.791,1.397-7.123,3.556-9.982,5.963
						c-5.723,4.869-9.846,10.545-13.731,15.915c-3.86,5.39-7.412,10.662-11.345,15.11c-3.902,4.442-8.285,7.963-13.043,9.086
						c-1.186,0.291-2.392,0.445-3.611,0.473c-1.262,0.021-2.599-0.049-3.806-0.22c-2.45-0.345-4.571-1.127-6.223-2.401
						c-3.347-2.494-5.04-7.394-6.31-12.505c-1.307-5.14-2.263-10.646-4.568-16.026c-1.153-2.676-2.699-5.323-4.773-7.589
						c-2.057-2.274-4.62-4.085-7.287-5.295c-2.671-1.226-5.413-1.911-8.06-2.296c-0.341-0.046-0.602-0.092-1.159-0.146l-0.733-0.063
						l-0.732,0.062c-0.555,0.055-0.821,0.101-1.155,0.146l-0.982,0.154c-1.309,0.23-2.614,0.532-3.903,0.93
						c-2.573,0.792-5.089,1.995-7.29,3.63c-2.208,1.624-4.045,3.664-5.458,5.804c-2.831,4.325-4.124,8.822-5.187,12.886
						c-1.039,4.085-1.791,7.89-2.828,11.226c-1.02,3.335-2.354,6.142-4.145,7.99c-1.767,1.861-4.043,2.885-6.628,3.363
						c-1.284,0.238-2.617,0.348-3.953,0.357c-1.283,0.016-2.45-0.091-3.598-0.323c-2.28-0.456-4.346-1.382-6.208-2.554
						c-3.725-2.377-6.604-5.552-8.969-8.379c-2.36-2.861-4.227-5.47-5.741-7.572c-3.044-4.279-4.597-6.461-4.597-6.461
						s-0.402-0.554-1.198-1.65c-0.807-1.096-2.011-2.74-3.73-4.883c-1.732-2.13-3.948-4.795-7.105-7.668
						c-1.583-1.429-3.413-2.904-5.592-4.267c-2.174-1.359-4.715-2.604-7.61-3.438c-2.865-0.844-6.159-1.224-9.37-1.067
						c-3.216,0.131-6.777,0.657-10.338,2.255c-3.562,1.557-6.895,4.397-9.161,7.831c-2.308,3.427-3.742,7.242-4.894,11.053
						c-1.151,3.821-2.016,7.713-3.088,11.502c-1.073,3.764-2.368,7.501-4.467,10.322c-2.069,2.827-4.988,4.532-8.884,5.075
						c-0.961,0.142-1.97,0.211-3.007,0.222c-1.011,0.019-1.946-0.051-2.909-0.202c-1.906-0.307-3.768-0.976-5.56-1.998
						c-3.595-2.039-6.833-5.465-9.733-9.444c-2.912-3.996-5.535-8.55-8.166-13.339c-2.639-4.793-5.259-9.854-8.347-14.976
						c-1.551-2.559-3.224-5.136-5.167-7.658c-1.95-2.512-4.167-4.999-6.951-7.156c-2.757-2.146-6.222-3.927-10.05-4.533
						c-0.95-0.155-1.912-0.241-2.87-0.26c-0.966-0.025-2.079,0.043-3.111,0.232c-2.102,0.378-4.1,1.238-5.787,2.349
						c-3.391,2.254-5.681,5.206-7.618,8.133c-1.926,2.955-3.482,6.004-4.944,9.069c-2.903,6.128-5.379,12.387-8.299,18.375
						c-1.459,2.984-3.028,5.901-4.834,8.543c-1.8,2.632-3.872,4.991-6.209,6.505c-2.332,1.526-4.87,2.123-7.692,1.775
						c-1.46-0.184-2.743-0.525-4.016-1.141c-1.27-0.604-2.501-1.446-3.669-2.474c-2.345-2.054-4.419-4.792-6.292-7.768
						c-1.875-2.988-3.561-6.238-5.177-9.601c-3.246-6.737-6.145-13.937-9.776-21.198c-1.839-3.626-3.844-7.292-6.538-10.817
						c-1.359-1.754-2.901-3.479-4.811-5.012c-1.896-1.523-4.233-2.852-6.887-3.485c-0.658-0.162-1.331-0.274-2.006-0.347
						c-0.337-0.04-0.676-0.058-1.014-0.077l-0.946-0.012c-1.102,0.005-2.223,0.046-3.37,0.144c-2.284,0.202-4.713,0.59-7.211,1.658
						c-1.24,0.536-2.479,1.267-3.581,2.186c-1.106,0.914-2.046,2-2.801,3.106c-1.507,2.235-2.354,4.461-3.107,6.536
						c-1.446,4.166-2.579,8.011-4.135,11.756c-1.525,3.734-3.367,7.331-5.546,10.786c-1.087,1.728-2.257,3.418-3.496,5.073
						c-0.616,0.822-1.266,1.658-1.902,2.443c-0.386,0.473-0.788,0.795-1.255,1.034c-0.907,0.479-2.331,0.622-4.019,0.342
						c-1.678-0.271-3.514-0.904-5.331-1.704c-3.654-1.629-7.281-3.903-10.803-6.392c-3.528-2.499-6.975-5.25-10.366-8.132
						c-6.778-5.778-13.339-12.085-19.791-18.669c-6.449-6.591-12.786-13.477-19.052-20.582
						c-12.526-14.22-24.786-29.305-36.835-45.091c-12.039-15.795-23.876-32.299-35.294-49.562c-5.704-8.634-11.3-17.46-16.691-26.51
						c-5.383-9.052-10.585-18.326-15.303-27.893c-2.351-4.784-4.581-9.643-6.55-14.584c-0.984-2.47-1.9-4.96-2.706-7.464
						c-0.403-1.252-0.779-2.508-1.114-3.763c-0.343-1.253-0.616-2.487-0.924-3.855c-2.423-10.647-4.372-21.475-5.904-32.483
						c-3.067-22.015-4.362-44.677-4.578-67.763c-0.228-23.093,0.589-46.619,1.391-70.567c0.19-5.991,0.382-12.006,0.574-18.043
						c0.083-3.022,0.166-6.05,0.249-9.084c0.086-3.063,0.106-6.148,0.085-9.23c-0.085-12.338-1.028-24.752-2.718-37.131
						c-3.362-24.787-9.81-49.297-17.15-73.658c-3.665-12.191-7.538-24.376-11.342-36.641c-0.944-3.066-1.89-6.138-2.838-9.215
						c-0.95-3.099-1.857-6.1-2.674-9.174c-1.647-6.131-3.01-12.364-4.103-18.668c-1.097-6.303-1.912-12.679-2.474-19.099
						c-0.276-3.211-0.493-6.433-0.638-9.662l-0.1-2.424c-0.028-0.793-0.047-1.571-0.052-2.361c-0.012-1.575,0.014-3.156,0.083-4.743
						c0.52-12.727,3.443-25.619,5.171-39.109c0.428-3.376,0.773-6.795,0.963-10.257c0.096-1.73,0.147-3.473,0.155-5.223
						c-0.001-0.888-0.002-1.725-0.036-2.657c-0.025-0.931-0.099-1.852-0.184-2.771c-0.76-7.358-3.211-14.11-5.938-20.472
						c-2.757-6.372-5.887-12.424-8.795-18.482c-2.906-6.051-5.628-12.115-7.515-18.321c-0.962-3.117-1.604-6.167-2.151-9.502
						c-0.549-3.279-0.975-6.592-1.296-9.922c-0.635-6.662-0.843-13.398-0.655-20.144c0.386-13.487,2.307-27.033,5.923-40.15
						c3.626-13.1,8.976-25.819,16.498-37.155c3.757-5.66,8.063-10.954,12.921-15.683l0.987-0.946l1.981-1.812
						c1.353-1.187,2.781-2.366,4.25-3.556l4.349-3.546l1.763-1.433c0.076-0.164,1.192-0.74,0.756-0.844l-2.424-0.044
						c-3.275-0.077-6.621-0.08-9.028-0.201c-0.551-0.07-1.123-0.128-1.56-0.274c-0.49-0.106-0.902-0.284-1.323-0.454
						c-0.515-0.218-0.752-0.367-0.812-0.396c-0.134-0.082-0.271-0.154-0.403-0.244c-1.066-0.672-2.057-1.605-2.951-2.725
						c-1.794-2.247-3.168-5.174-4.226-8.272c-1.062-3.11-1.83-6.422-2.425-9.795c-1.175-6.763-1.676-13.776-1.875-20.824
						c-0.357-14.12,0.494-28.437,1.832-42.764c1.359-14.334,3.27-28.707,5.544-43.088c2.283-14.381,4.934-28.779,7.964-43.147
						c2.146-10.123,4.473-20.315,7.175-30.394c0.679-2.516,1.385-5.023,2.137-7.495c0.752-2.453,1.554-4.949,2.454-7.117
						c0.219-0.521,0.464-1.044,0.638-1.343l0.074-0.12c-0.861-0.623-1.601-1.213-2.043-1.71c-0.229-0.264-0.375-0.454-0.446-0.641
						c4.326,5.41,1.224,1.481,2.201,2.681l0.044-0.031l0.087-0.063l0.349-0.253c0.94-0.663,1.924-1.262,2.941-1.796
						c2.039-1.058,4.218-1.852,6.466-2.326c4.489-0.964,9.26-0.673,13.491,0.901c2.113,0.786,4.085,1.888,5.803,3.273
						c0.86,0.69,1.653,1.456,2.377,2.276c0.176,0.209,0.358,0.414,0.525,0.63l0.254,0.322c0.058,0.077,0.054,0.072,0.046,0.062
						l-0.007-0.011l-0.01-0.014c-0.01-0.01,0-0.01,0.008-0.017l0.001-0.001l-0.057,0.067c-0.161,0.2-0.311,0.398-0.451,0.595
						c-0.278,0.391-0.516,0.772-0.733,1.147c-0.433,0.75-0.778,1.473-1.086,2.184c-1.202,2.834-1.911,5.528-2.556,8.222
						c-1.242,5.373-2.036,10.67-2.717,15.952c-1.328,10.557-2.111,21.014-2.716,31.357c-0.593,10.342-0.967,20.565-1.208,30.631
						c-0.467,20.132-0.424,39.634,0.076,58.189v0c0.25,9.075,0.633,18.175,1.177,26.315c0.272,4.071,0.584,7.901,0.946,11.377
						c0.181,1.738,0.375,3.388,0.584,4.939c0.211,1.509,0.406,2.912,0.585,4.19c0.153,1.061,0.306,2.121,0.384,2.662
						c9.369,64.381,26.645,128.097,48.632,189.868c5.474,15.448,11.345,30.791,17.279,46.001
						c5.934,15.25,12.119,30.464,19.118,45.329c7.002,14.855,14.779,29.407,24.006,43.097c9.235,13.641,19.952,26.539,33.107,36.89
						c6.567,5.154,13.753,9.619,21.477,12.979c7.714,3.366,15.953,5.592,24.325,6.479c16.454,1.665,32.87,0.488,48.793-2.608
						c15.914-3.141,31.384-8.291,45.752-15.649c7.174-3.689,14.067-7.941,20.486-12.844c0.804-0.61,1.597-1.235,2.384-1.868
						l0.56-0.453l0.113-0.093l0.226-0.185c1.201-0.986,2.353-1.972,3.442-2.94c4.363-3.874,7.677-7.51,9.445-9.574
						c4.058-4.751,6.588-9.035,8.4-13.315c1.787-4.295,2.875-8.62,3.501-13.742c-2.956,4.23-5.662,7.447-8.414,10.805
						c-2.778,3.338-5.611,6.813-9.382,11.144c-1.645,1.882-4.708,5.222-8.768,8.816c-1.014,0.899-2.087,1.815-3.208,2.734
						l-0.211,0.173l-0.105,0.086l-0.522,0.423c-0.735,0.591-1.476,1.175-2.228,1.745c-6.004,4.587-12.505,8.603-19.308,12.1
						c-13.625,6.981-28.44,11.924-43.677,14.929c-15.228,2.97-30.999,4.073-46.445,2.505c-7.562-0.803-15.001-2.807-22.023-5.871
						c-7.03-3.057-13.644-7.153-19.762-11.956c-12.258-9.634-22.526-21.92-31.444-35.104c-8.918-13.228-16.528-27.444-23.409-42.046
						c-6.882-14.615-12.998-29.65-18.906-44.835c-5.937-15.218-11.75-30.411-17.198-45.783
						c-21.854-61.391-38.984-124.612-48.261-188.365c-0.078-0.536-0.229-1.586-0.38-2.636c-0.176-1.263-0.37-2.648-0.578-4.139
						c-0.197-1.452-0.381-3.025-0.556-4.698c-0.348-3.347-0.654-7.09-0.922-11.088c-0.535-7.997-0.915-17.009-1.163-26.007l0,0
						c-0.497-18.403-0.54-37.798-0.076-57.786c0.239-9.993,0.61-20.137,1.197-30.367c0.597-10.225,1.374-20.556,2.665-30.816
						c0.658-5.119,1.436-10.244,2.573-15.154c0.574-2.434,1.248-4.862,2.119-6.897c0.216-0.501,0.446-0.973,0.675-1.368
						c0.114-0.198,0.228-0.377,0.333-0.525l0.148-0.196l-0.146-0.616l0.228-0.399l1.31-2.292l0.529-0.916l0.414-0.714l0.21-0.364
						c0.051-0.135,0.229-0.289,0.186-0.428c-0.57-1.128-1.268-2.24-2.023-3.333l-0.548-0.749l-0.36-0.458
						c-0.24-0.307-0.496-0.6-0.748-0.896c-1.027-1.167-2.151-2.248-3.358-3.217c-2.412-1.944-5.134-3.456-7.994-4.519
						c-5.729-2.124-11.98-2.477-17.861-1.22c-2.944,0.622-5.797,1.659-8.462,3.044c-1.331,0.697-2.615,1.481-3.84,2.345l-0.456,0.33
						l-0.114,0.082l-0.057,0.042c0.336-0.191-0.833,0.486,0.74-0.418c-0.636,0.282-1.032,0.607-1.27,0.819
						c-0.499,0.458-0.717,0.771-0.91,1.035c-0.194,0.273-0.331,0.5-0.459,0.718c-0.486,0.851-0.784,1.538-1.083,2.235
						c-1.127,2.727-1.928,5.283-2.73,7.88c-0.787,2.586-1.511,5.163-2.207,7.739c-2.762,10.302-5.106,20.586-7.275,30.815
						c-3.06,14.509-5.731,29.024-8.036,43.542c-2.296,14.518-4.227,29.039-5.605,43.578c-1.355,14.54-2.23,29.099-1.863,43.715
						c0.208,7.308,0.719,14.633,1.99,21.967c0.648,3.666,1.488,7.335,2.729,10.979c1.255,3.629,2.879,7.291,5.521,10.632
						c1.323,1.657,2.935,3.222,4.876,4.45c0.239,0.157,0.49,0.299,0.738,0.445c0.332,0.182,0.474,0.259,0.381,0.207l-0.007-0.004
						l-0.016-0.004c-0.018,0.001-0.008-0.005,0.001-0.013l0.012-0.011l0.012-0.012l-0.929,0.893
						c-5.293,5.152-9.948,10.885-13.983,16.963c-8.076,12.178-13.712,25.646-17.524,39.407c-3.798,13.784-5.798,27.92-6.203,42.022
						c-0.197,7.053,0.02,14.104,0.688,21.109c0.337,3.503,0.786,6.994,1.368,10.468c0.555,3.421,1.322,7.076,2.381,10.484
						c4.235,13.736,11.421,25.57,16.615,37.635c2.589,6.01,4.726,12.108,5.335,18.147c0.067,0.753,0.13,1.504,0.149,2.251
						c0.029,0.743,0.03,1.582,0.031,2.37c-0.007,1.602-0.054,3.208-0.144,4.818c-0.176,3.222-0.501,6.456-0.912,9.699
						c-1.64,12.974-4.645,26.089-5.226,39.768c-0.073,1.706-0.102,3.42-0.089,5.136c0.006,0.856,0.027,1.724,0.057,2.574
						l0.103,2.503c0.15,3.337,0.374,6.665,0.66,9.983c0.581,6.636,1.424,13.23,2.56,19.76c1.131,6.528,2.545,12.992,4.256,19.36
						c0.844,3.18,1.808,6.363,2.749,9.431c0.951,3.088,1.9,6.171,2.849,9.248c3.814,12.298,7.682,24.463,11.322,36.575
						c7.296,24.205,13.615,48.292,16.893,72.462c1.648,12.074,2.564,24.143,2.647,36.129c0.02,2.999,0.001,5.983-0.083,8.977
						c-0.083,3.021-0.165,6.038-0.248,9.049c-0.191,6.027-0.382,12.032-0.573,18.014c-0.799,23.937-1.623,47.577-1.392,70.904
						c0.219,23.317,1.528,46.332,4.654,68.763c1.56,11.208,3.554,22.283,6.021,33.12c0.296,1.318,0.619,2.771,1,4.17
						c0.375,1.399,0.787,2.774,1.224,4.132c0.874,2.716,1.849,5.362,2.885,7.962c2.074,5.2,4.382,10.224,6.8,15.145
						c4.851,9.833,10.141,19.259,15.602,28.44c5.468,9.179,11.126,18.101,16.887,26.82c11.532,17.434,23.463,34.065,35.603,49.992
						c12.151,15.918,24.515,31.131,37.189,45.518c6.341,7.19,12.763,14.171,19.33,20.881c6.572,6.705,13.275,13.154,20.312,19.153
						c3.524,2.994,7.131,5.877,10.916,8.559c3.793,2.671,7.731,5.179,12.16,7.161c2.227,0.972,4.579,1.829,7.242,2.271
						c1.333,0.21,2.746,0.32,4.249,0.185c1.493-0.131,3.087-0.521,4.565-1.276c1.481-0.746,2.79-1.848,3.771-3.064
						c0.733-0.903,1.415-1.782,2.099-2.693c1.357-1.814,2.647-3.679,3.853-5.594c2.415-3.826,4.483-7.867,6.166-11.992
						c1.702-4.101,2.96-8.354,4.264-12.092c0.658-1.853,1.367-3.54,2.199-4.752c0.838-1.216,1.73-1.956,3.039-2.53
						c1.3-0.567,2.977-0.893,4.761-1.042c0.894-0.075,1.816-0.11,2.753-0.115l0.583,0.006c0.17,0.013,0.341,0.018,0.508,0.039
						c0.336,0.036,0.669,0.09,0.997,0.173c2.616,0.59,5.179,2.841,7.343,5.671c2.177,2.838,4.03,6.162,5.747,9.561
						c3.426,6.838,6.336,14.047,9.712,21.066c1.691,3.514,3.489,6.999,5.604,10.373c2.126,3.36,4.549,6.66,7.76,9.489
						c1.602,1.407,3.42,2.68,5.455,3.649c2.022,0.985,4.307,1.593,6.444,1.845c2.19,0.273,4.508,0.185,6.734-0.331
						c2.228-0.517,4.324-1.461,6.143-2.646c3.655-2.396,6.253-5.531,8.402-8.643c2.143-3.139,3.852-6.353,5.41-9.531
						c3.096-6.361,5.579-12.646,8.337-18.454c1.377-2.894,2.813-5.678,4.425-8.146c1.601-2.459,3.422-4.612,5.35-5.865
						c1.967-1.277,3.704-1.54,6.243-1.153c2.322,0.371,4.511,1.441,6.536,3.008c4.062,3.171,7.307,7.915,10.207,12.674
						c2.903,4.81,5.499,9.809,8.184,14.691c2.688,4.885,5.438,9.695,8.704,14.184c3.268,4.451,7.108,8.718,12.175,11.625
						c2.515,1.44,5.324,2.467,8.18,2.922c1.418,0.228,2.878,0.325,4.241,0.301c1.336-0.015,2.684-0.104,4.037-0.302
						c2.696-0.385,5.442-1.217,7.903-2.64c2.468-1.406,4.559-3.379,6.12-5.496c1.577-2.121,2.695-4.353,3.583-6.517
						c0.886-2.169,1.55-4.291,2.133-6.339c1.154-4.097,2.005-7.923,3.053-11.383c1.035-3.453,2.262-6.539,3.887-8.934
						c1.616-2.405,3.604-4.059,5.905-5.089c2.296-1.038,4.88-1.472,7.433-1.57c2.576-0.118,4.799,0.163,6.902,0.768
						c4.171,1.207,7.486,3.611,10.133,5.995c2.649,2.406,4.667,4.809,6.259,6.772c1.587,1.977,2.74,3.55,3.515,4.601
						c0.77,1.062,1.159,1.598,1.159,1.598s1.548,2.177,4.584,6.444c1.55,2.151,3.482,4.862,6.078,8.011
						c2.625,3.105,5.855,6.807,10.817,10.001c2.479,1.565,5.458,2.931,8.833,3.604c1.672,0.342,3.462,0.498,5.208,0.475
						c1.691-0.013,3.467-0.147,5.31-0.488c1.84-0.345,3.762-0.907,5.64-1.835c1.875-0.917,3.685-2.217,5.195-3.805
						c1.518-1.586,2.73-3.418,3.684-5.302c0.958-1.889,1.672-3.832,2.276-5.774c1.199-3.887,1.96-7.799,2.935-11.602
						c0.969-3.785,2.145-7.51,4.131-10.507c1.96-3.007,4.792-5.144,8.549-6.288c0.933-0.288,1.914-0.517,2.928-0.695l0.769-0.121
						l0.609-0.082c0.249-0.041,0.262,0.005,0.928,0.084c2.089,0.303,4.109,0.83,5.926,1.665c3.659,1.639,6.355,4.64,8.152,8.891
						c1.839,4.227,2.796,9.343,4.163,14.835c0.701,2.752,1.507,5.64,2.846,8.582c1.323,2.914,3.336,5.965,6.283,8.21
						c2.93,2.267,6.501,3.473,9.878,3.937c1.716,0.238,3.351,0.323,5.072,0.295c1.764-0.038,3.552-0.266,5.298-0.694
						c3.505-0.849,6.76-2.514,9.566-4.556c2.822-2.045,5.25-4.439,7.466-6.938c4.419-5.015,8.058-10.463,11.849-15.741
						c3.778-5.255,7.68-10.485,12.405-14.48c2.356-1.984,4.917-3.605,7.667-4.617c1.374-0.509,2.794-0.868,4.252-1.067
						c1.454-0.206,2.943-0.231,4.533-0.146c3.112,0.162,6.042,0.865,8.423,2.309c2.392,1.425,4.269,3.652,5.721,6.485
						c1.458,2.826,2.491,6.153,3.433,9.659c0.948,3.516,1.788,7.236,3.014,11.08c1.24,3.812,2.853,7.907,5.941,11.523
						c1.532,1.789,3.46,3.372,5.602,4.517c2.14,1.155,4.451,1.873,6.719,2.26c1.137,0.196,2.269,0.314,3.388,0.373
						c0.56,0.027,1.116,0.042,1.671,0.044c0.575,0.001,1.168-0.018,1.754-0.057c2.351-0.162,4.718-0.676,6.929-1.539
						c4.46-1.718,8.145-4.67,11.168-7.874c3.036-3.229,5.52-6.765,7.79-10.359c2.264-3.603,4.303-7.287,6.306-10.964
						c2.001-3.676,3.957-7.353,6.028-10.916c2.071-3.556,4.258-7.021,6.751-10.061c2.482-3.029,5.328-5.602,8.452-6.867
						c1.552-0.637,3.197-0.946,4.858-0.934c1.441,0.016,2.765,0.437,4.104,1.308c2.696,1.75,5.084,5.15,7.109,8.777
						c2.045,3.67,3.836,7.694,5.644,11.803c1.808,4.116,3.611,8.348,5.711,12.585c2.119,4.225,4.469,8.518,7.863,12.488
						c1.703,1.968,3.711,3.855,6.166,5.344c2.437,1.493,5.361,2.498,8.313,2.719c1.473,0.116,2.939,0.06,4.353-0.136
						c0.716-0.098,1.389-0.222,2.101-0.389c0.719-0.167,1.428-0.376,2.118-0.627c2.778-0.99,5.221-2.584,7.283-4.386
						c4.128-3.648,6.978-7.988,9.483-12.33c2.485-4.368,4.571-8.843,6.59-13.303c2.016-4.46,3.942-8.924,6.023-13.244
						c2.084-4.296,4.317-8.532,7.049-12.003c1.362-1.717,2.861-3.212,4.434-4.189c0.785-0.489,1.58-0.85,2.386-1.072
						c0.402-0.112,0.81-0.19,1.224-0.235c0.439-0.047,0.757-0.055,1.402-0.047c2.288,0.027,4.522,0.242,6.312,0.813
						c1.812,0.593,2.944,1.4,3.957,2.876c1.019,1.482,1.841,3.664,2.628,5.995c0.788,2.341,1.574,4.846,2.483,7.344
						c1.802,5.016,4.128,9.999,6.982,14.636c1.423,2.324,2.966,4.573,4.606,6.744l1.248,1.614l0.654,0.815
						c0.302,0.363,0.621,0.719,0.973,1.055c1.387,1.362,3.234,2.384,5.08,2.861c1.854,0.498,3.652,0.528,5.298,0.369
						c1.652-0.164,3.176-0.529,4.622-0.977c2.886-0.908,5.474-2.15,7.944-3.504c4.921-2.733,9.371-5.948,13.673-9.326
						c4.293-3.388,8.405-6.971,12.426-10.668c8.03-7.404,15.695-15.26,23.196-23.378c7.495-8.123,14.813-16.523,22.014-25.141
						c14.392-17.243,28.342-35.339,41.862-54.224c13.489-18.905,26.615-38.563,38.687-59.384
						c6.005-10.431,11.773-21.136,16.731-32.466c2.455-5.68,4.729-11.503,6.37-17.74c0.203-0.778,0.392-1.58,0.564-2.345
						l0.509-2.249l0.986-4.531c0.642-3.029,1.239-6.073,1.814-9.127c4.563-24.443,6.76-49.61,7.422-75.051
						c0.682-25.455-0.112-51.19-0.979-77.159c-0.211-6.489-0.424-12.999-0.637-19.529c-0.18-6.514-0.436-13.108-0.468-19.557
						c-0.052-12.966,0.884-26.012,2.663-39.039c3.546-26.083,10.609-51.959,18.564-77.936c4.037-13.015,8.097-26.102,12.179-39.26
						c1.001-3.28,2.043-6.645,2.952-10.05c0.922-3.397,1.753-6.821,2.508-10.266c1.505-6.89,2.678-13.865,3.539-20.893
						c0.861-7.031,1.409-14.103,1.651-21.223c0.236-7.325-0.434-14.561-1.401-21.64c-1.926-14.141-5.106-27.894-4.915-41.486
						c0.05-6.392,2.039-12.851,4.648-19.226c2.625-6.385,5.883-12.701,9.03-19.21c3.144-6.512,6.245-13.236,8.453-20.49
						c0.549-1.813,1.035-3.658,1.446-5.533c0.414-1.911,0.718-3.679,1.026-5.53c0.596-3.667,1.049-7.353,1.375-11.05
						c1.286-14.787,0.645-29.74-1.787-44.485c-2.46-14.729-6.742-29.311-13.419-42.974c0.378,0.79-0.148-0.359-1.595-3.148
						c-1.467-2.776-3.869-7.202-7.662-12.68c-1.901-2.733-4.154-5.726-6.849-8.844c-1.344-1.562-2.806-3.147-4.378-4.752
						c-0.398-0.396-0.801-0.797-1.207-1.201c-0.383-0.369-0.771-0.743-1.161-1.12l0.022,0.021c0.021,0.014,0.021,0.018-0.004,0.02
						l-0.012,0.004c-0.004,0.002-0.002-0.002-0.009,0.006c-0.097,0.051,0.225-0.12,0.37-0.203l0.535-0.314
						c1.409-0.865,2.678-1.928,3.789-3.094c2.229-2.342,3.842-5.054,5.129-7.846c1.283-2.803,2.239-5.719,3.018-8.702
						c1.539-5.97,2.379-12.212,2.893-18.657c0.504-6.446,0.654-13.101,0.575-19.929c-0.169-13.656-1.243-28.008-2.87-42.808
						c-1.635-14.799-3.843-30.046-6.493-45.49c-2.66-15.444-5.742-31.084-9.345-46.658l0,0c-0.021-0.086-0.303-1.285-0.882-3.747
						c-0.589-2.461-1.448-6.012-2.565-10.284c-1.135-4.278-2.457-9.248-4.286-14.652c-0.473-1.362-0.962-2.732-1.633-4.237
						c-0.172-0.381-0.357-0.771-0.588-1.201c-0.245-0.438-0.469-0.879-1.052-1.588l-0.275-0.301
						c-0.121-0.121-0.252-0.242-0.396-0.363l-0.293-0.223c-0.095-0.067-0.196-0.137-0.365-0.233
						c-0.151-0.086-0.308-0.166-0.467-0.235c1.59,0.915,0.433,0.247,0.783,0.448l-0.016-0.011l-0.03-0.022l-0.493-0.357
						c-0.329-0.237-0.667-0.465-1.006-0.692c-2.723-1.802-5.766-3.225-8.952-4.163c-0.01-0.002-0.354-0.099-0.903-0.253
						c-0.551-0.148-1.294-0.323-2.044-0.472c-4.506-0.89-9.208-0.848-13.728,0.213c-4.512,1.06-8.861,3.157-12.448,6.286
						c-0.896,0.779-1.743,1.619-2.531,2.513c-0.392,0.45-0.772,0.91-1.135,1.383l-0.401,0.547c-0.156,0.21-0.308,0.421-0.442,0.631
						c-0.273,0.423-0.575,0.838-0.815,1.271c-0.251,0.429-0.513,0.856-0.732,1.288c-0.105,0.216-0.313,0.429-0.081,0.654
						l0.334,0.577l0.927,1.604l0.955,1.674l0.334,0.583c0.12,0.203,0.288,0.376,0.13,0.75c-0.134,0.462,0.021,0.214,0.023,0.354
						l0.12,0.168c0.7,1.021,1.4,2.787,1.944,4.526c0.558,1.773,1.024,3.654,1.439,5.561c1.63,7.673,2.575,15.715,3.365,23.742
						c0.771,8.045,1.32,16.147,1.752,24.267c0.851,16.243,1.233,32.563,1.318,48.891c0.068,16.328-0.149,32.68-0.848,48.973
						c-0.364,8.138-0.825,16.285-1.654,24.289c-0.213,2.018-0.45,3.936-0.744,5.972l-0.862,6.054
						c-0.594,4.034-1.218,8.063-1.87,12.086c-2.612,16.094-5.697,32.102-9.21,47.994c-7.02,31.787-15.72,63.106-25.646,93.826
						c-4.965,15.36-10.233,30.574-15.762,45.631c-2.763,7.528-5.59,15.017-8.476,22.469c-2.892,7.475-5.762,14.918-8.714,22.294
						c-5.899,14.75-12.124,29.253-19.134,43.231c-7.013,13.964-14.791,27.438-23.87,39.768
						c-9.071,12.291-19.514,23.495-31.743,31.882c-6.106,4.178-12.646,7.612-19.501,10.042c-3.427,1.213-6.929,2.177-10.474,2.879
						c-3.558,0.718-7.099,1.116-10.809,1.364c-14.714,1.001-29.519-0.285-43.794-3.218c-14.277-2.958-28.092-7.61-40.828-13.995
						c-6.363-3.195-12.45-6.834-18.124-10.943c-2.837-2.054-5.569-4.226-8.175-6.516l-1.153-1.028
						c-0.246-0.225-0.489-0.447-0.729-0.667c-0.475-0.444-0.938-0.879-1.387-1.301c-0.889-0.854-1.71-1.67-2.455-2.434
						c-1.488-1.527-2.667-2.844-3.497-3.786c-3.771-4.329-6.604-7.806-9.382-11.144
						C1249.778,1337.32,1247.072,1334.103,1244.117,1329.872z"/>
				</g>
			</g>
		</g>
	</g>
	<g>
		<g>
			<path fill="#983620" d="M755.887,1355.901c24.293-45.116,65.939-65.939,114.526-76.351
				c24.293-3.471,118.431,35.847,176.561,40.048v57.053c-29.748,57.477-130.744,122.022-227.132,115.535
				c-33.91-1.64-54.094,6.206-83.585,16.138c-10.69,3.134-21.473,2.037-31.853-1.063c8.319-4.623,37.168-29.893,52.785-45.51
				c0,0-58.531,28.782-74.616,19.088c12.906-9.002,42.236-42.022,42.236-42.022c-13.882,13.882-57.419,28.14-67.831,9.053
				C696.889,1442.663,738.535,1387.136,755.887,1355.901z M1337.822,1355.901c-24.294-45.116-65.939-65.939-114.526-76.351
				c-24.294-3.471-118.431,35.847-176.561,40.048v57.053c29.748,57.477,130.744,122.022,227.132,115.535
				c33.91-1.64,54.094,6.206,83.586,16.138c10.689,3.134,21.473,2.037,31.852-1.063c-8.318-4.623-37.167-29.893-52.784-45.51
				c0,0,58.53,28.782,74.615,19.088c-12.906-9.002-42.235-42.022-42.235-42.022c13.882,13.882,57.419,28.14,67.83,9.053
				C1396.82,1442.663,1355.174,1387.136,1337.822,1355.901z"/>
		</g>
		<g>
			<g>
				<g>
					<path fill="#653614" d="M1337.822,1355.901c-1.459-4.898-2.621-9.192-4.729-13.254c-1.911-4.188-4.599-8.238-8.484-13.028
						c-1.109-1.249-2.775-3.124-4.841-5.45c-1.048-1.147-2.308-2.303-3.598-3.595c-1.085-1.06-2.178-2.128-3.279-3.205
						c-1.536-1.32-3.085-2.651-4.645-3.993c-0.786-0.661-1.55-1.36-2.364-1.998c-0.826-0.624-1.655-1.251-2.487-1.879
						c-1.679-1.237-3.312-2.568-5.063-3.749c-6.942-4.833-14.494-9.124-22.432-13.028c-7.999-3.775-16.409-7.061-25.109-9.937
						c-4.381-1.321-8.783-2.73-13.292-3.851c-2.247-0.594-4.488-1.211-6.819-1.716c-1.156-0.266-2.314-0.532-3.475-0.798l-1.742-0.4
						l-0.872-0.199c-0.303-0.061-0.547-0.15-0.933-0.171c-1.419-0.137-2.899-0.279-4.133-0.216
						c-0.644,0.012-1.299,0.006-1.934,0.036l-1.87,0.146c-1.262,0.076-2.471,0.247-3.689,0.405c-1.228,0.142-2.424,0.346-3.621,0.55
						c-4.792,0.818-9.507,1.844-14.187,2.998c-9.374,2.277-18.671,4.935-28.019,7.623c-18.674,5.412-37.48,11.11-56.445,16.166
						c-18.946,5.023-38.088,9.588-57.121,11.75c-0.595,0.078-1.188,0.132-1.781,0.182l-2.666,0.238l-3.642,0.324l-0.91,0.081
						l-0.455,0.041c-0.117,0.045-0.382-0.046-0.376,0.112v1.83c0,3.312,0,6.617,0,9.917c0,4.848,0,9.679,0.001,14.486
						c0,9.617,0.001,19.148,0.001,28.561c0,1.177,0,2.352,0,3.524v2.278v0.88c0.046,0.278,0.249,0.503,0.365,0.757l0.708,1.28
						c1.193,2.104,2.284,4.268,3.6,6.265c1.269,2.03,2.51,4.071,3.899,5.986c0.677,0.973,1.352,1.942,2.025,2.911
						c0.675,0.968,1.416,1.877,2.119,2.814c5.672,7.466,11.854,14.281,18.246,20.581c6.379,6.32,13.068,12.018,19.768,17.329
						c3.329,2.686,6.753,5.153,10.102,7.625c1.708,1.187,3.404,2.365,5.089,3.535c0.845,0.581,1.687,1.159,2.525,1.735
						c0.854,0.555,1.704,1.106,2.552,1.656c6.732,4.471,13.525,8.379,20.118,12.061c6.658,3.563,13.135,6.888,19.498,9.727
						c25.376,11.594,47.754,17.453,63.438,20.45c1.955,0.423,3.826,0.701,5.581,0.989c1.755,0.286,3.398,0.555,4.926,0.803
						c3.065,0.436,5.681,0.721,7.791,0.994c2.108,0.291,3.736,0.393,4.828,0.489c1.093,0.092,1.655,0.14,1.655,0.14
						s0.647,0.055,2.063,0.173c0.708,0.06,1.606,0.135,2.713,0.228c1.109,0.049,2.426,0.105,3.965,0.172
						c1.539,0.065,3.3,0.141,5.299,0.226c2.001,0,4.24,0.001,6.732,0.001c2.496,0.053,5.223-0.137,8.223-0.255
						c3.051-0.175,6.154-0.19,9.563-0.242c1.704-0.026,3.476-0.055,5.316-0.083c1.839,0.048,3.744,0.196,5.723,0.294
						c1.975,0.132,4.031,0.174,6.143,0.389c2.104,0.271,4.281,0.553,6.533,0.843c8.986,1.326,19.035,3.582,30.244,7.252
						c5.622,1.791,11.522,3.773,17.88,5.93c0.792,0.268,1.588,0.537,2.39,0.809l1.207,0.408l0.605,0.205l0.679,0.173
						c1.824,0.431,3.68,0.985,5.549,1.199c0.937,0.134,1.877,0.304,2.828,0.406c0.953,0.064,1.912,0.129,2.878,0.193
						c0.967,0.091,1.936,0.079,2.91,0.059c0.974-0.022,1.959-0.003,2.939-0.064c1.954-0.178,3.948-0.285,5.912-0.644l0.742-0.113
						c0.257-0.04,0.427-0.063,0.961-0.162l1.348-0.246l1.332-0.329c1.778-0.439,3.568-0.882,5.368-1.326
						c1.8-0.45,3.607-0.972,5.429-1.458c0.91-0.247,1.822-0.496,2.738-0.745l0.638-0.173l0.311-0.084l0.155-0.042
						c0.092-0.007,0.048-0.039-0.027-0.077l-1.352-0.833c-1.892-1.165-3.795-2.338-5.71-3.517c-1.028-0.603-1.79-1.189-2.671-1.785
						c-0.856-0.594-1.716-1.189-2.577-1.787l-1.29-0.904l-0.936-0.715l-1.185-0.922c-0.794-0.61-1.586-1.245-2.381-1.889
						c-1.597-1.271-3.193-2.599-4.812-3.936c-3.223-2.697-6.502-5.488-9.816-8.397c-4.828-4.244-10.591-9.331-18.734-17.015
						c-2.035-1.919-4.216-4.007-6.535-6.298c-0.29-0.286-0.584-0.576-0.879-0.868l-0.446-0.439l-0.225-0.222l-0.057-0.056
						l-0.028-0.028c-2.01,2.798,4.479-6.281-4.51,6.269l0.02,0.01l0.156,0.076c0.789,0.377,1.594,0.761,2.415,1.153
						c1.64,0.754,3.343,1.538,5.113,2.353c7.109,3.182,15.364,6.703,25.275,10.219h0.001c4.988,1.751,10.352,3.518,16.304,5.014
						c2.971,0.761,6.095,1.438,9.421,1.946c1.656,0.271,3.381,0.458,5.16,0.59c0.903,0.035,1.785,0.135,2.729,0.113l0.703-0.005
						l0.354-0.004l0.47-0.013l1.222-0.053l1.222-0.172c0.815-0.115,1.635-0.23,2.458-0.346l0.618-0.087l0.515-0.182l1.032-0.364
						c0.672-0.253,1.42-0.466,2.039-0.755c0.604-0.297,1.212-0.596,1.821-0.895c1.292-0.635,2.597-1.273,3.912-1.919l0.83-0.409
						l-1.13-0.851c-0.756-0.567-1.515-1.139-2.276-1.712c-1.515-1.182-3.042-2.374-4.584-3.577c-0.761-0.611-1.566-1.188-2.3-1.834
						l-0.836-0.728l-0.518-0.463c-1.389-1.217-2.779-2.512-4.188-3.844c-5.643-5.32-11.486-11.348-17.675-17.892
						c-3.452-3.671-6.953-7.462-10.438-11.309l-2.6-2.892l-0.16-0.18l-0.04-0.045c1.235-1.178-10.81,10.198-5.704,5.39l0.013,0.012
						l0.024,0.023l0.101,0.095l0.402,0.379l0.805,0.756c0.541,0.493,1.101,0.936,1.652,1.404c2.23,1.796,4.556,3.338,6.92,4.747
						c4.733,2.806,9.641,5.034,14.559,6.849c4.919,1.814,9.862,3.184,14.727,4.071l0,0c3.572,0.646,7.235,1.063,10.996,1.084
						c3.753,0.02,7.636-0.354,11.51-1.594c0.482-0.161,0.967-0.307,1.447-0.486l1.431-0.616c0.479-0.191,0.948-0.431,1.409-0.701
						l0.693-0.391l0.365-0.209l0.459-0.281l2.008-1.604c0.332-0.269,0.677-0.531,0.998-0.805l0.781-0.896
						c0.514-0.597,1.056-1.191,1.548-1.792l1.159-1.833c0.723-1.179,1.706-2.616,2.384-3.847l-3.807-1.411l-0.952-0.353
						c-0.337-0.106-0.588-0.262-1.006-0.323l-2.31-0.479l-2.31-0.479l-1.155-0.24l-0.577-0.12c-0.212-0.041-0.228-0.064-0.351-0.099
						c-6.296-1.861-12.418-4.703-18.165-8.258c-5.76-3.539-11.218-7.649-16.393-12.074c-10.341-8.884-19.561-18.979-27.912-29.341
						c-0.424-0.526-0.846-1.051-1.266-1.57c-0.231-0.298-0.461-0.593-0.689-0.886c-0.457-0.585-0.906-1.161-1.348-1.727
						c-3.508-4.54-6.348-8.468-7.879-10.63c-3.431-4.821-6.266-8.498-9.177-11.868
						C1344.322,1362.734,1341.349,1359.667,1337.822,1355.901c1.352,4.98,2.723,9.113,4.566,13.263
						c1.851,4.147,4.173,8.326,7.642,13.308c1.549,2.233,4.447,6.272,8.044,10.938c0.452,0.581,0.913,1.174,1.382,1.775
						c0.234,0.301,0.47,0.604,0.708,0.909c0.43,0.535,0.863,1.074,1.299,1.616c8.589,10.653,18.081,21.067,28.922,30.385
						c5.429,4.643,11.201,9.001,17.411,12.816c6.195,3.825,12.933,6.993,20.111,9.109l0.283,0.088l0.082,0.02l0.164,0.04l0.327,0.08
						l0.328,0.08c0.086,0.021,0.019,0.005,0.035,0.009c-0.019,0.001-0.023-0.006-0.009-0.019c0.008-0.011,0.019-0.019,0.029-0.026
						l-0.757,0.419c-0.29,0.179-0.598,0.339-0.934,0.465l-0.974,0.424c-0.336,0.126-0.691,0.226-1.035,0.343
						c-2.779,0.899-5.912,1.245-9.088,1.221c-3.18-0.018-6.416-0.375-9.619-0.956l0,0c-4.364-0.796-8.9-2.046-13.419-3.714
						c-4.514-1.662-9.04-3.724-13.264-6.229c-2.105-1.254-4.145-2.614-5.99-4.101c-0.443-0.381-0.914-0.748-1.338-1.137
						l-0.625-0.587l-0.313-0.293l-0.079-0.073l-0.02-0.019l-0.01-0.009c5.104-4.812-6.965,6.543-5.716,5.38l0.042,0.047l0.166,0.187
						l2.641,2.936c3.522,3.888,7.055,7.712,10.546,11.423c6.265,6.621,12.171,12.717,18.002,18.215
						c1.456,1.375,2.899,2.719,4.372,4.011l0.545,0.486l0.251,0.224l-0.019-0.017l-0.02-0.018l-0.012-0.01
						c-0.032-0.015,0.016-0.02,0.026-0.021c0.013,0,0.001,0-0.04-0.002l-1.006,0.009c-0.739,0.024-1.52-0.069-2.267-0.095
						c-1.515-0.113-3.024-0.272-4.518-0.519c-2.984-0.454-5.889-1.079-8.686-1.796c-5.601-1.404-10.782-3.105-15.61-4.8l0,0
						c-9.607-3.405-17.715-6.86-24.67-9.972c-1.729-0.796-3.393-1.561-4.994-2.297c-0.789-0.377-1.563-0.746-2.321-1.108
						l-0.133-0.064l-0.017-0.009c-8.98,12.559-2.48,3.489-4.481,6.296l0.028,0.028l0.058,0.058l0.23,0.227l0.456,0.45
						c0.303,0.299,0.604,0.595,0.9,0.888c2.376,2.347,4.59,4.465,6.655,6.413c8.261,7.79,14.073,12.917,18.965,17.214
						c3.353,2.942,6.679,5.772,9.959,8.518c1.65,1.364,3.277,2.716,4.923,4.026c0.815,0.66,1.631,1.313,2.461,1.951l1.232,0.959
						l0.295,0.229l-0.02-0.015l-0.006-0.005c-0.008-0.006-0.02-0.011-0.004-0.012l0.007-0.002c0.011-0.001-0.003,0.001-0.042,0.006
						l-1.094,0.167c-1.746,0.324-3.475,0.403-5.181,0.567c-0.852,0.055-1.696,0.031-2.536,0.053
						c-0.84,0.021-1.676,0.035-2.495-0.049c-0.823-0.054-1.641-0.107-2.453-0.16c-0.808-0.088-1.6-0.238-2.392-0.35
						c-1.613-0.174-3.068-0.643-4.563-0.973l-0.559-0.136l-0.598-0.203l-1.189-0.402c-0.79-0.268-1.575-0.533-2.354-0.798
						c-6.209-2.106-12.224-4.127-17.938-5.946c-11.411-3.735-22.027-6.144-31.48-7.529c-2.374-0.306-4.67-0.601-6.891-0.886
						c-2.225-0.226-4.386-0.275-6.465-0.413c-2.081-0.103-4.087-0.254-6.021-0.304c-1.936,0.029-3.798,0.057-5.589,0.084
						c-3.584,0.055-6.919,0.085-9.771,0.25c-2.907,0.115-5.561,0.302-7.957,0.249c-2.4,0-4.557,0.001-6.484,0.001
						c-1.928-0.082-3.627-0.154-5.111-0.218s-2.754-0.118-3.824-0.163c-1.068-0.09-1.937-0.163-2.62-0.221
						c-1.366-0.115-1.992-0.168-1.992-0.168s-0.543-0.045-1.599-0.134c-1.055-0.095-2.626-0.19-4.666-0.474
						c-2.041-0.267-4.569-0.541-7.535-0.963c-1.479-0.242-3.07-0.502-4.77-0.779c-1.699-0.279-3.511-0.548-5.406-0.96
						c-15.195-2.907-36.94-8.599-61.657-19.896c-6.198-2.765-12.506-6.007-18.992-9.478c-6.42-3.588-13.038-7.395-19.587-11.748
						c-0.825-0.534-1.652-1.071-2.483-1.61c-0.815-0.562-1.635-1.124-2.456-1.689c-1.639-1.138-3.288-2.284-4.949-3.438
						c-3.252-2.403-6.58-4.801-9.81-7.407c-6.498-5.155-12.981-10.677-19.13-16.773c-6.163-6.075-12.096-12.626-17.489-19.728
						c-0.668-0.892-1.378-1.758-2.015-2.675c-0.638-0.917-1.275-1.835-1.915-2.755c-1.321-1.816-2.48-3.732-3.674-5.641
						c-1.245-1.881-2.246-3.891-3.363-5.852l-0.142-0.254c-0.014-0.025-0.016-0.026-0.014-0.021v0.002v-0.36v-0.879
						c0-1.173,0-2.348,0.001-3.524c0-9.412,0.001-18.943,0.001-28.561c0.001-4.808,0.001-9.639,0.001-14.486l0.001-3.639v-0.911
						c0-0.098,0-0.146,0-0.118v0.002v0.003v0.011c0.001,0.012-0.004,0.005-0.005,0.007c0.02-0.001-0.047,0.005,0.044-0.004
						l0.932-0.083c0.621-0.053,1.242-0.108,1.857-0.189c19.783-2.251,39.162-6.898,58.296-11.964
						c19.131-5.099,38.005-10.817,56.606-16.208c9.301-2.675,18.535-5.312,27.689-7.534c4.574-1.129,9.133-2.116,13.631-2.884
						c1.125-0.193,2.248-0.385,3.354-0.51c1.111-0.145,2.225-0.304,3.302-0.364l1.627-0.13c0.532-0.025,1.045-0.015,1.568-0.026
						c1.103-0.058,1.941,0.069,2.839,0.114c8.681,1.849,17.569,4.191,25.975,6.854c8.4,2.778,16.482,5.938,24.131,9.544
						c7.579,3.732,14.76,7.811,21.332,12.384c1.66,1.117,3.197,2.378,4.785,3.545c0.787,0.593,1.571,1.184,2.353,1.772
						c0.771,0.603,1.487,1.264,2.229,1.888c1.473,1.264,2.934,2.519,4.383,3.763c1.038,1.016,2.066,2.023,3.088,3.022
						c1.217,1.216,2.41,2.297,3.399,3.377c1.957,2.181,3.536,3.939,4.587,5.111c3.702,4.479,6.778,7.863,9.679,11.168
						C1331.434,1349.012,1334.171,1352.19,1337.822,1355.901z"/>
				</g>
			</g>
			<g>
				<g>
					<path fill="#653614" d="M755.888,1355.901c3.651-3.711,6.389-6.889,9.481-10.065c2.9-3.305,5.977-6.688,9.678-11.169
						c1.052-1.171,2.63-2.93,4.587-5.111c0.99-1.079,2.183-2.16,3.4-3.377c1.021-0.999,2.05-2.006,3.087-3.021
						c1.45-1.244,2.911-2.499,4.383-3.763c0.743-0.625,1.459-1.285,2.23-1.888c0.781-0.589,1.565-1.18,2.353-1.773
						c1.588-1.167,3.125-2.428,4.785-3.544c6.572-4.573,13.752-8.652,21.332-12.384c7.648-3.607,15.731-6.766,24.132-9.544
						c8.404-2.664,17.293-5.006,25.974-6.854c0.898-0.046,1.737-0.172,2.84-0.114c0.522,0.011,1.036,0.001,1.568,0.026l1.627,0.13
						c1.077,0.061,2.19,0.22,3.301,0.364c1.106,0.125,2.229,0.316,3.354,0.51c4.498,0.768,9.056,1.755,13.631,2.884
						c9.154,2.224,18.389,4.86,27.689,7.535c18.602,5.39,37.476,11.108,56.607,16.207c19.134,5.065,38.513,9.713,58.296,11.964
						c0.616,0.081,1.237,0.137,1.858,0.189l0.931,0.083c0.089,0.008,0.023,0.002,0.043,0.004c-0.001-0.003-0.005,0.004-0.004-0.007
						v-0.011v-0.003v-0.002c0-0.027,0,0.022,0,0.119v0.91l0,3.64c0,4.848,0,9.679,0,14.486c0.001,9.617,0.001,19.147,0.002,28.561
						c0,1.177,0,2.352,0,3.524l0,0.879v0.359v-0.002c0.002-0.005,0-0.004-0.014,0.021l-0.142,0.254
						c-1.117,1.962-2.119,3.972-3.364,5.854c-1.193,1.906-2.353,3.823-3.674,5.64c-0.639,0.92-1.277,1.839-1.915,2.755
						c-0.637,0.916-1.347,1.783-2.015,2.675c-5.394,7.103-11.327,13.652-17.49,19.728c-6.148,6.097-12.632,11.618-19.13,16.773
						c-3.229,2.606-6.557,5.004-9.81,7.407c-1.661,1.154-3.311,2.301-4.949,3.438c-0.822,0.565-1.641,1.129-2.456,1.689
						c-0.831,0.539-1.659,1.076-2.483,1.61c-6.55,4.354-13.167,8.16-19.588,11.748c-6.485,3.471-12.793,6.713-18.991,9.478
						c-24.718,11.297-46.463,16.988-61.658,19.896c-1.896,0.412-3.707,0.68-5.406,0.959c-1.699,0.278-3.291,0.538-4.77,0.779
						c-2.966,0.422-5.494,0.697-7.536,0.963c-2.04,0.283-3.611,0.379-4.667,0.474c-1.055,0.089-1.598,0.134-1.598,0.134
						s-0.626,0.053-1.993,0.168c-0.683,0.058-1.552,0.131-2.62,0.221c-1.07,0.045-2.34,0.1-3.825,0.163s-3.183,0.136-5.111,0.218
						c-1.928,0-4.084-0.001-6.484-0.001c-2.397,0.053-5.05-0.135-7.957-0.249c-2.853-0.165-6.188-0.195-9.771-0.25
						c-1.792-0.027-3.654-0.055-5.589-0.084c-1.935,0.05-3.94,0.201-6.021,0.304c-2.079,0.138-4.24,0.188-6.465,0.413
						c-2.22,0.285-4.517,0.58-6.891,0.886c-9.453,1.386-20.069,3.794-31.48,7.53c-5.713,1.819-11.728,3.84-17.937,5.946
						c-0.78,0.264-1.565,0.53-2.355,0.798l-1.189,0.402l-0.598,0.202l-0.558,0.136c-1.494,0.33-2.95,0.799-4.563,0.973
						c-0.793,0.111-1.585,0.262-2.392,0.35c-0.813,0.053-1.63,0.106-2.453,0.16c-0.82,0.084-1.655,0.069-2.496,0.049
						c-0.84-0.021-1.684,0.002-2.536-0.053c-1.706-0.164-3.434-0.243-5.18-0.567l-1.093-0.167c-0.04-0.005-0.053-0.007-0.042-0.006
						l0.006,0.002c0.015,0.001,0.004,0.006-0.003,0.012l-0.005,0.005l-0.02,0.015l0.294-0.229l1.232-0.959
						c0.83-0.638,1.646-1.291,2.461-1.951c1.645-1.31,3.272-2.662,4.922-4.025c3.281-2.745,6.606-5.575,9.959-8.519
						c4.892-4.297,10.704-9.424,18.965-17.214c2.065-1.947,4.28-4.066,6.656-6.412c0.297-0.293,0.597-0.59,0.9-0.889l0.457-0.45
						l0.23-0.227l0.058-0.057l0.029-0.028l0.015-0.015c-8.991-12.551-2.502-3.475-4.513-6.273l-0.133,0.064
						c-0.758,0.362-1.532,0.731-2.321,1.108c-1.602,0.736-3.265,1.501-4.995,2.297c-6.955,3.111-15.063,6.566-24.67,9.972l0,0
						c-4.828,1.694-10.01,3.396-15.61,4.8c-2.797,0.717-5.702,1.342-8.686,1.796c-1.494,0.246-3.003,0.405-4.518,0.519
						c-0.748,0.025-1.527,0.119-2.267,0.095l-1.006-0.008c-0.042,0.001-0.052,0.001-0.041,0.001
						c0.011,0.001,0.058,0.006,0.026,0.021l-0.012,0.01l-0.02,0.018l-0.018,0.017l0.25-0.224l0.545-0.486
						c1.473-1.292,2.917-2.636,4.373-4.012c5.831-5.497,11.738-11.593,18.002-18.214c3.491-3.711,7.024-7.535,10.546-11.423
						l2.641-2.936l0.167-0.187l0.042-0.047c1.249,1.163-10.818-10.191-5.716-5.38l-0.01,0.009l-0.02,0.019l-0.079,0.073
						l-0.313,0.293l-0.625,0.587c-0.424,0.389-0.895,0.756-1.338,1.138c-1.846,1.485-3.885,2.846-5.991,4.1
						c-4.223,2.506-8.75,4.567-13.263,6.229c-4.519,1.668-9.055,2.919-13.419,3.714h0c-3.203,0.581-6.439,0.939-9.619,0.956
						c-3.175,0.025-6.309-0.321-9.088-1.221c-0.344-0.116-0.699-0.217-1.035-0.342l-0.973-0.425
						c-0.336-0.126-0.644-0.285-0.934-0.465l-0.757-0.419c0.01,0.008,0.021,0.016,0.028,0.026c0.014,0.013,0.01,0.02-0.008,0.019
						c0.017-0.004-0.051,0.012,0.035-0.009l0.328-0.08l0.328-0.08l0.164-0.04l0.082-0.02l0.283-0.088
						c7.179-2.116,13.916-5.284,20.111-9.109c6.21-3.815,11.982-8.174,17.412-12.816c10.841-9.317,20.333-19.731,28.922-30.385
						c0.436-0.542,0.869-1.081,1.299-1.616c0.238-0.305,0.474-0.608,0.708-0.909c0.468-0.602,0.929-1.194,1.381-1.775
						c3.597-4.667,6.496-8.705,8.044-10.938c3.469-4.981,5.791-9.16,7.642-13.307
						C753.166,1365.016,754.537,1360.882,755.888,1355.901c-3.526,3.766-6.5,6.833-9.407,10.209
						c-2.912,3.369-5.747,7.046-9.177,11.867c-1.531,2.162-4.371,6.09-7.879,10.629c-0.441,0.566-0.891,1.143-1.348,1.728
						c-0.228,0.293-0.458,0.588-0.69,0.885c-0.419,0.521-0.841,1.045-1.265,1.571c-8.352,10.362-17.571,20.457-27.913,29.341
						c-5.174,4.425-10.632,8.535-16.392,12.074c-5.748,3.555-11.869,6.396-18.165,8.258c-0.123,0.034-0.139,0.058-0.351,0.099
						l-0.578,0.12l-1.155,0.239l-2.31,0.48l-2.309,0.479c-0.418,0.062-0.669,0.217-1.006,0.323l-0.952,0.353l-3.806,1.411
						c0.678,1.23,1.661,2.668,2.384,3.847l1.159,1.834c0.492,0.6,1.034,1.194,1.548,1.792l0.781,0.895
						c0.321,0.273,0.666,0.536,0.997,0.806l2.008,1.604l0.459,0.281l0.365,0.209l0.694,0.391c0.461,0.271,0.929,0.51,1.409,0.701
						l1.431,0.616c0.48,0.18,0.964,0.325,1.447,0.486c3.874,1.239,7.757,1.613,11.509,1.594c3.761-0.021,7.425-0.437,10.997-1.084h0
						c4.863-0.888,9.807-2.257,14.726-4.071c4.919-1.814,9.826-4.043,14.559-6.848c2.364-1.41,4.69-2.952,6.92-4.748
						c0.551-0.469,1.11-0.911,1.652-1.404l0.805-0.756l0.402-0.379l0.101-0.095l0.025-0.023l0.013-0.012
						c5.106,4.809-6.94-6.567-5.705-5.39l-0.04,0.045l-0.16,0.18l-2.6,2.892c-3.485,3.847-6.986,7.638-10.439,11.309
						c-6.188,6.544-12.032,12.571-17.674,17.892c-1.409,1.332-2.8,2.627-4.189,3.844l-0.517,0.463l-0.837,0.728
						c-0.733,0.646-1.539,1.224-2.3,1.834c-1.541,1.203-3.069,2.396-4.583,3.577c-0.762,0.573-1.521,1.145-2.276,1.713l-1.13,0.85
						l0.831,0.409c1.316,0.646,2.62,1.285,3.912,1.919c0.61,0.3,1.217,0.598,1.821,0.895c0.62,0.289,1.367,0.502,2.04,0.755
						l1.032,0.364l0.515,0.182l0.618,0.087c0.823,0.116,1.643,0.231,2.458,0.346l1.221,0.172l1.223,0.053l0.469,0.014l0.353,0.003
						l0.704,0.005c0.943,0.022,1.826-0.078,2.729-0.113c1.78-0.132,3.504-0.319,5.16-0.59c3.326-0.508,6.451-1.186,9.421-1.946
						c5.952-1.496,11.316-3.262,16.305-5.014l0,0c9.912-3.516,18.167-7.037,25.276-10.219c1.771-0.814,3.474-1.599,5.114-2.353
						c0.821-0.393,1.625-0.776,2.415-1.153l0.156-0.076c-1.999-2.806,4.502,6.265-4.477-6.292l-0.014,0.014l-0.028,0.028
						l-0.056,0.056l-0.225,0.222l-0.446,0.439c-0.296,0.293-0.589,0.582-0.879,0.868c-2.32,2.291-4.5,4.379-6.536,6.299
						c-8.144,7.684-13.906,12.77-18.734,17.015c-3.314,2.908-6.594,5.699-9.817,8.396c-1.618,1.337-3.214,2.664-4.811,3.936
						c-0.795,0.644-1.587,1.278-2.381,1.889l-1.185,0.922l-0.936,0.716l-1.29,0.903c-0.862,0.598-1.721,1.193-2.578,1.787
						c-0.88,0.596-1.643,1.183-2.671,1.785c-1.915,1.179-3.818,2.352-5.711,3.517l-1.352,0.833c-0.075,0.038-0.119,0.07-0.027,0.076
						l0.155,0.043l0.31,0.084l0.638,0.173c0.916,0.249,1.829,0.498,2.739,0.745c1.82,0.486,3.628,1.008,5.428,1.457
						c1.8,0.445,3.589,0.888,5.368,1.327l1.332,0.329l1.348,0.246c0.534,0.1,0.706,0.122,0.961,0.162l0.743,0.113
						c1.964,0.358,3.958,0.466,5.912,0.644c0.98,0.062,1.966,0.042,2.939,0.064c0.975,0.021,1.943,0.032,2.91-0.059
						c0.966-0.064,1.925-0.129,2.878-0.193c0.951-0.103,1.891-0.271,2.828-0.406c1.87-0.214,3.725-0.768,5.549-1.198l0.679-0.173
						l0.606-0.205l1.206-0.408c0.802-0.271,1.599-0.541,2.39-0.81c6.357-2.156,12.258-4.139,17.88-5.93
						c11.208-3.669,21.258-5.926,30.244-7.252c2.251-0.29,4.428-0.571,6.533-0.843c2.111-0.215,4.167-0.257,6.143-0.389
						c1.978-0.098,3.883-0.245,5.722-0.294c1.841,0.028,3.613,0.057,5.316,0.083c3.408,0.052,6.511,0.067,9.563,0.242
						c3,0.118,5.726,0.308,8.223,0.255c2.492,0,4.731-0.001,6.732-0.001c1.999-0.085,3.76-0.16,5.299-0.226
						c1.539-0.066,2.855-0.123,3.965-0.172c1.106-0.092,2.005-0.168,2.712-0.227c1.415-0.119,2.063-0.174,2.063-0.174
						s0.562-0.047,1.655-0.14c1.092-0.097,2.72-0.198,4.829-0.488c2.11-0.273,4.726-0.559,7.791-0.994
						c1.528-0.249,3.171-0.517,4.926-0.803c1.754-0.289,3.626-0.567,5.581-0.99c15.684-2.997,38.062-8.856,63.438-20.449
						c6.363-2.839,12.84-6.163,19.498-9.727c6.593-3.682,13.386-7.59,20.119-12.062c0.848-0.549,1.698-1.101,2.552-1.654
						c0.839-0.577,1.681-1.155,2.526-1.736c1.684-1.17,3.381-2.349,5.089-3.535c3.349-2.472,6.772-4.939,10.102-7.625
						c6.699-5.312,13.388-11.009,19.768-17.329c6.393-6.3,12.574-13.115,18.246-20.581c0.703-0.938,1.445-1.847,2.119-2.814
						c0.674-0.969,1.349-1.938,2.025-2.91c1.39-1.916,2.631-3.957,3.899-5.987c1.316-1.997,2.408-4.161,3.601-6.265l0.708-1.279
						c0.117-0.254,0.317-0.479,0.366-0.757v-0.88v-2.279c0-1.173,0-2.348,0-3.524c0.001-9.413,0.001-18.943,0.002-28.561
						c0-4.808,0.001-9.639,0.001-14.486c0-3.3,0-6.605,0-9.916v-1.83c0.01-0.161-0.259-0.068-0.374-0.114l-0.455-0.041l-0.91-0.081
						l-3.642-0.325l-2.667-0.237c-0.593-0.05-1.187-0.104-1.781-0.182c-19.033-2.162-38.175-6.727-57.121-11.75
						c-18.965-5.056-37.772-10.754-56.446-16.166c-9.348-2.688-18.644-5.346-28.018-7.623c-4.68-1.154-9.395-2.18-14.187-2.998
						c-1.197-0.204-2.394-0.408-3.622-0.55c-1.219-0.158-2.428-0.329-3.689-0.405l-1.871-0.146c-0.634-0.03-1.29-0.024-1.934-0.036
						c-1.233-0.063-2.713,0.079-4.133,0.216c-0.385,0.021-0.63,0.11-0.933,0.171l-0.872,0.199l-1.742,0.399
						c-1.16,0.267-2.318,0.533-3.475,0.798c-2.332,0.505-4.572,1.122-6.819,1.717c-4.509,1.12-8.912,2.529-13.292,3.851
						c-8.7,2.876-17.11,6.16-25.109,9.937c-7.938,3.904-15.489,8.194-22.432,13.028c-1.751,1.181-3.384,2.512-5.063,3.748
						c-0.832,0.629-1.661,1.255-2.487,1.88c-0.815,0.638-1.578,1.336-2.365,1.998c-1.56,1.342-3.108,2.672-4.644,3.993
						c-1.102,1.077-2.195,2.146-3.279,3.205c-1.291,1.292-2.55,2.446-3.598,3.595c-2.065,2.325-3.731,4.201-4.841,5.45
						c-3.885,4.79-6.572,8.842-8.484,13.028C758.509,1346.709,757.347,1351.004,755.888,1355.901z"/>
				</g>
			</g>
		</g>
	</g>
</g>
<g id="hair_copy">
	<g>
		<path fill="#983620" d="M519.211,833.765"/>
		<g>
			<path fill="#653614" d="M517.449,835.963c1.909,0,4.516-0.704,5.768-2.263c1.293-1.609-1.1-2.134-2.243-2.134
				c-1.909,0-4.516,0.704-5.768,2.263C513.912,835.438,516.305,835.963,517.449,835.963L517.449,835.963z"/>
		</g>
	</g>
	<g>
		<path fill="#983620" d="M1046.974,664.239c-55.671,0-150.367-74.736-150.367-132.391c0-47.992-77.963,18.324-127.415,18.324
			c-91.389,0-211.433-106.162-142.712-106.162c149.437,0-45.851,431.271-183.078,431.271c-33.758,0,38.897-99.416,17.931-99.416
			c-19.555,0-72.259,16.082-72.259-9.772c85.742-85.742,42.605-195.38,42.605-227.701c0-22.93,8.339-62.026,40.547-62.026
			c27.425,0,44.856-8.808,62.127-27.996c0-100.644,82.666-256.836,278.043-256.836c44.844,0,66.693-83.505,234.576-83.505"/>
		<g>
			<path fill="#653614" d="M1048.578,661.451c-18.524-0.137-36.488-7.362-52.669-15.832c-19.507-10.21-37.439-23.564-53.236-38.866
				c-14.59-14.132-27.877-30.605-35.842-49.433c-3.327-7.864-5.612-16.393-5.843-24.96c-0.157-5.825-0.437-12.033-4.834-16.408
				c-8.983-8.939-26.002-2.756-35.939,0.812c-17.882,6.421-34.883,15.062-52.621,21.86c-8.702,3.335-17.699,6.289-26.91,7.832
				c-9.029,1.512-18.197,0.898-27.232-0.255c-20.478-2.614-40.423-9.66-59.044-18.374c-17.805-8.333-34.765-18.659-50.292-30.716
				c-11.33-8.797-22.864-19.049-30.158-31.581c-2.014-3.46-3.827-7.755-3.336-11.839c0.418-3.48,2.683-4.987,5.286-5.791
				c8.846-2.729,20.019-1.001,28.567,2.118c16.638,6.072,25.333,22.329,28.911,38.735c5.045,23.13,2.027,47.807-2.454,70.762
				c-12.209,62.547-39.816,122.799-72.753,176.999c-16.548,27.23-35.167,53.358-56.647,76.932
				c-17.443,19.143-37.264,37.45-60.55,49.229c-9.075,4.591-18.783,8.093-28.912,9.345c-3.576,0.442-8.314,1.347-11.182-0.652
				c-2.671-1.862-2.309-6.772-1.992-9.577c1.429-12.619,7.762-24.939,12.956-36.339c5.473-12.012,11.604-23.877,15.812-36.415
				c2.452-7.306,3.787-16.193-6.506-15.932c-16.542,0.42-32.69,5.335-49.322,4.871c-5.955-0.167-14.155-1.021-17.2-7.049
				c-0.677-1.339-0.956-2.844-1.137-4.317c-0.187-1.523,5.14-5.812,6.201-6.978c4.586-5.042,8.835-10.386,12.867-15.877
				c14.118-19.23,23.867-41.407,29.273-64.599c8.709-37.36,4.688-75.713-1.834-113.041c-2.088-11.952-4.514-23.698-3.658-35.881
				c1.174-16.716,6.16-39.322,22.227-48.084c4.251-2.318,8.87-2.974,13.65-3.004c6.212-0.04,12.408-0.548,18.513-1.713
				c10.75-2.052,20.771-6.21,29.795-12.405c4.409-3.028,8.46-6.606,12.285-10.332c1.833-1.786,4.35-3.815,5.635-6.044
				c0.789-1.368,0.302-4.031,0.338-5.586c0.167-7.039,0.762-14.064,1.64-21.048c3.995-31.779,14.669-62.63,29.887-90.74
				c17.336-32.024,41.247-60.476,70.115-82.704c33.343-25.673,72.935-42.142,114.278-49.467c11.849-2.1,23.829-3.412,35.834-4.167
				c8.779-0.551,17.8,0.193,26.51-1.01c8.836-1.22,16.904-5.177,24.35-9.927c8.617-5.497,16.547-12.044,24.677-18.218
				c10.43-7.921,21.179-15.39,32.55-21.904c44.337-25.4,96.314-32.974,146.739-33.063c2.038-0.003,4.59-0.579,5.702-2.508
				c1.017-1.763-0.86-3.072-2.494-3.069c-44.847,0.079-90.197,5.698-131.703,23.484c-24.942,10.688-46.413,26.308-67.854,42.635
				c-7.139,5.436-14.436,10.945-22.479,14.487c-3.205,1.411-6.532,2.347-9.882,2.722c-9.273,1.039-19.767,0.433-29.577,1.136
				c-43.821,3.142-86.817,15.41-124.933,37.389c-61.687,35.571-106.646,97.01-124.602,165.64
				c-3.748,14.326-6.202,29.006-7.17,43.785c-0.215,3.289-0.331,6.583-0.38,9.877c-0.069,4.553-7.416,9.458-10.772,12.202
				c-8.729,7.136-18.943,11.833-30.051,13.756c-10.905,1.887-21.865,0.223-32.293,4.571c-8.215,3.425-14.546,10.173-19.037,17.687
				c-8.26,13.818-11.351,31.986-10.408,47.918c0.749,12.648,3.849,25.234,5.879,37.713c2.984,18.342,4.983,36.848,4.829,55.45
				c-0.181,21.743-3.563,43.416-10.728,63.968c-8.634,24.767-23.5,46.898-41.897,65.454c-1.991,2.008-0.352,6.604,0.738,8.76
				c1.403,2.777,3.71,4.779,6.42,6.246c6.59,3.565,14.816,3.575,22.09,3.422c8.977-0.188,17.917-1.565,26.789-2.838
				c3.847-0.552,7.694-1.104,11.556-1.545c1.628-0.186,3.26-0.328,4.896-0.435c0.573-0.037,1.148-0.066,1.723-0.071
				c1.055-0.009,0.029-0.087,0.512,0.051c-0.261-0.075,0.265,0.201,0.515,1.559c0.283,1.539-0.146,3.338-0.481,4.886
				c-1.122,5.186-3.281,10.165-5.359,15.022c-5.615,13.122-12.092,25.856-17.529,39.057c-3.748,9.1-9.564,21.364-6.934,31.481
				c2.512,9.662,15.637,7.609,22.979,6.522c23.193-3.435,44.176-16.105,62.192-30.537c22.912-18.354,42.412-40.665,60.008-64.06
				c19.903-26.461,37.228-54.863,52.492-84.226c15.073-28.996,28.061-59.149,38.32-90.185c8.79-26.59,15.722-54.209,17.701-82.22
				c1.427-20.19,0.436-42.118-9.687-60.161c-9.046-16.125-25.875-23.909-43.886-24.583c-9.048-0.338-23.511,0.424-27.803,10.27
				c-3.877,8.894,3.621,19.211,8.846,25.794c10.055,12.669,23.196,23.033,36.38,32.242c16.478,11.51,34.354,21.163,52.984,28.697
				c18.709,7.566,38.381,13.041,58.577,14.431c18.85,1.298,36.477-3.881,53.887-10.634c17.476-6.778,34.216-15.552,51.992-21.542
				c9.934-3.347,23.643-7.114,26.35,6.639c0.688,3.497,0.407,7.128,0.687,10.668c0.316,3.997,1.141,7.941,2.182,11.806
				c2.252,8.369,6.063,16.265,10.373,23.75c10.085,17.521,24.204,32.677,39.354,45.918c15.522,13.567,32.802,25.277,51.372,34.254
				c15.365,7.428,32.379,13.344,49.617,13.471c2.033,0.015,4.597-0.59,5.702-2.508
				C1052.094,662.748,1050.207,661.463,1048.578,661.451L1048.578,661.451z"/>
		</g>
	</g>
	<g>
		<path fill="#983620" d="M1573.25,833.765"/>
		<g>
			<path fill="#653614" d="M1571.487,835.963c1.909,0,4.517-0.704,5.769-2.263c1.293-1.609-1.101-2.134-2.243-2.134
				c-1.909,0-4.517,0.704-5.769,2.263C1567.951,835.438,1570.345,835.963,1571.487,835.963L1571.487,835.963z"/>
		</g>
	</g>
	<g>
		<path fill="#983620" d="M1045.486,664.239c55.672,0,150.367-74.736,150.367-132.391c0-47.992,77.963,18.324,127.415,18.324
			c91.39,0,211.434-106.162,142.712-106.162c-149.436,0,45.852,431.271,183.078,431.271c33.759,0-38.897-99.416-17.932-99.416
			c19.555,0,72.26,16.082,72.26-9.772c-85.742-85.742-42.605-195.38-42.605-227.701c0-22.93-8.339-62.026-40.547-62.026
			c-27.426,0-44.855-8.808-62.127-27.996c0-100.644-82.666-256.836-278.045-256.836c-44.844,0-66.691-83.505-234.576-83.505"/>
		<g>
			<path fill="#653614" d="M1043.882,667.028c18.302-0.135,36.016-6.26,52.339-14.151c19.405-9.381,37.273-21.896,53.397-36.148
				c15.509-13.709,29.581-29.697,39.604-47.886c4.28-7.767,7.646-16.125,9.588-24.788c1.575-7.027,0.126-15.041,2.743-21.746
				c4.248-10.882,22.566-2.212,30.034,0.609c18.005,6.803,35.206,15.553,53.313,22.125c17.86,6.483,35.127,9.124,54.046,6.862
				c20.28-2.425,40.019-8.861,58.657-17.05c18.234-8.011,35.655-18.121,51.719-29.888c12.532-9.181,24.679-19.579,33.908-32.17
				c4.78-6.522,10.664-16.682,5.423-24.522c-5.581-8.348-20.317-7.497-28.865-6.727c-18.454,1.662-34.555,11.467-43.091,28.079
				c-9.602,18.688-9.798,41.244-8.069,61.684c2.393,28.3,9.817,56.148,18.901,82.969c10.551,31.151,23.991,61.332,39.375,90.384
				c15.402,29.084,32.893,57.126,52.887,83.284c17.534,22.939,37.191,44.634,60.104,62.325c17.742,13.697,38.491,25.252,61.15,27.49
				c8.745,0.864,20.109,0,21.389-10.822c1.311-11.09-4.866-23.457-9.096-33.311c-5.543-12.915-11.964-25.445-17.269-38.464
				c-1.818-4.463-3.64-9.106-4.324-13.903c-0.146-1.021,0.008-3.006,0.12-3.263c0.341-0.78-0.322,0.157-0.676,0.32
				c-1.879,0.865-0.494,0.337,1.163,0.426c16.892,0.9,33.315,5.462,50.349,4.743c7.21-0.304,14.509-1.973,20.162-6.641
				c2.233-1.845,3.605-4.503,4.412-7.23c0.382-1.288,0.813-3.366,0.458-4.689c-0.694-2.593-5.566-6.055-7.407-8.077
				c-32.368-35.583-46.736-81.741-45.98-129.301c0.286-17.996,2.62-35.877,5.603-53.602c1.967-11.691,4.985-23.63,5.203-35.532
				c0.312-17.063-3.423-35.849-13.601-49.844c-5.23-7.191-12.874-12.201-21.536-14.128c-5.239-1.166-10.644-0.798-15.964-1.122
				c-6.202-0.377-12.289-1.506-18.225-3.331c-10.981-3.375-20.464-10.137-28.615-18.076c-1.335-1.3-4.726-3.745-4.737-5.602
				c-0.011-1.629-0.054-3.258-0.105-4.887c-0.115-3.579-0.328-7.153-0.62-10.722c-1.221-14.925-4.086-29.7-8.083-44.12
				c-19.129-69.005-66.099-129.353-129.021-163.702c-39.112-21.351-83.296-31.804-127.627-33.81
				c-11.847-0.536-21.937,0.524-32.61-4.836c-8.409-4.223-15.918-10.156-23.352-15.859c-20.922-16.05-42.23-30.762-66.693-40.991
				c-40.123-16.777-84.076-22.07-127.271-22.146c-2.036-0.003-4.592,0.583-5.702,2.508c-1.019,1.766,0.862,3.066,2.494,3.069
				c44.648,0.079,90.067,5.749,131.049,24.375c23.969,10.893,44.331,26.62,65.25,42.285c7.227,5.412,14.677,10.534,23.11,13.876
				c3.797,1.505,7.806,2.415,11.867,2.816c10.104,0.999,20.432,0.429,30.587,1.203c43.913,3.343,86.908,16.193,124.508,39.297
				c60.264,37.029,103.219,99.824,118.303,168.692c3.093,14.122,4.942,28.573,5.162,43.034c0.033,2.202-0.159,3.184,1.395,4.892
				c1.958,2.151,4.021,4.201,6.131,6.202c4.091,3.879,8.576,7.357,13.333,10.378c9.198,5.842,19.693,8.969,30.413,10.456
				c10.92,1.515,21.33-0.372,30.91,6.18c7.654,5.235,12.286,14.182,15.318,22.676c4.886,13.686,6.203,28.635,4.155,42.973
				c-2.071,14.503-5.084,28.85-7.02,43.378c-2.551,19.141-3.528,38.473-2.122,57.749c1.636,22.409,7.083,44.433,16.534,64.833
				c5.2,11.225,11.704,21.816,19.107,31.715c3.946,5.278,8.245,10.284,12.72,15.118c1.723,1.861,4.564,3.46,4.244,6.067
				c-0.209,1.699-0.858,3.167-1.803,4.574c-3.396,5.066-13.076,4.508-18.233,4.4c-8.977-0.188-17.917-1.566-26.789-2.838
				c-6.866-0.985-27.492-6.858-29.072,4.714c-0.54,3.96,1.017,8.281,2.279,11.952c2.014,5.851,4.584,11.514,7.137,17.144
				c5.901,13.016,12.32,25.845,17.205,39.293c1.904,5.242,3.613,10.685,4.146,16.261c0.175,1.833,0.045,3.697-0.419,5.479
				c-0.168,0.646-0.497,1.216-0.856,1.774c-0.275,0.426-0.325,0.389-0.614,0.527c-0.495,0.236,0.063,0.078-1.204,0.187
				c-0.745,0.064-1.942-0.015-2.854-0.051c-2.553-0.1-5.097-0.377-7.623-0.751c-4.946-0.732-9.819-2.137-14.535-3.772
				c-23.307-8.084-43.484-24.522-60.926-41.511c-45.938-44.75-80.429-102.165-106.854-160.18
				c-13.091-28.74-24.196-58.521-31.993-89.146c-6.26-24.587-10.782-50.448-8.751-75.896c1.365-17.105,6.369-36.382,20.978-46.854
				c6.809-4.88,14.566-6.875,23.115-7.416c7.223-0.458,19.986-0.434,20.779,9.229c0.825,10.05-10.302,20.841-16.582,27.209
				c-12.6,12.776-27.516,23.279-42.859,32.478c-17.707,10.615-36.771,19.25-56.591,25.067c-18.033,5.293-37.657,8.68-56.275,4.716
				c-19.126-4.071-37.103-12.747-54.931-20.504c-13.611-5.922-29.184-14.015-44.447-13.442c-5.404,0.203-11.073,2.035-14.606,6.332
				c-4.309,5.242-3.919,11.78-4.313,18.153c-1.147,18.512-11.168,35.67-22.067,50.141c-15.81,20.99-36.601,38.489-58.793,52.372
				c-18.577,11.622-40.987,22.632-63.393,22.797c-2.041,0.015-4.585,0.572-5.702,2.508
				C1040.375,665.715,1042.246,667.04,1043.882,667.028L1043.882,667.028z"/>
		</g>
	</g>
</g>
</svg>
